<svg viewBox="0 0 96 72" xmlns="http://www.w3.org/2000/svg"><path d="M48.071 3.806c-1.083 4.737-6.479 25.18-6.479 25.18-.273-.245-.535-.487-.839-.719-3.06-2.273-7.469-3.076-12.787-3.076-3.979 0-7.596.617-10.872 1.852-3.281 1.244-6.243 3.099-8.879 5.575-2.612 2.548-4.629 5.451-6.061 8.729-1.441 3.276-2.155 6.672-2.155 10.199 0 6.159 1.928 11.055 5.773 14.687 3.841 3.636 9.049 5.448 15.592 5.448 8.497 0 16.309-4.744 21.711-11.135l-1.323-.988c-2.969 3.587-11.483 10.221-17.595 10.221-4.099 0-8.411-1.791-8.216-6.309.237-5.492 5.857-25.732 7.521-29.143 2.637-5.344 6.633-7.664 11.885-6.787 5.721.945 7.748 5.263 7.849 11.364h14.405l10.44-38.905c-6.419 2.78-13.099 3.752-19.973 3.807z" fill="#272F3F"/><path d="M87.133 9.127c.492-1.133 1.164-1.935 2.019-2.401 1.181-.7 2.739-1.052 4.676-1.052h2.217v-1.852h-21.16l-4.343 16.279v39.972c0 3.404-.18 5.505-.543 6.305-.457 1.135-1.115 1.935-1.968 2.403-1.18.701-2.74 1.049-4.677 1.049h-2.213v1.852h34.904v-1.852h-2.217c-1.869 0-3.356-.325-4.455-.976-1.1-.651-1.836-1.409-2.213-2.276-.379-.867-.568-3.036-.568-6.505v-44.639c0-3.403.18-5.504.541-6.307z" fill="#406196"/></svg>