<svg viewBox="0 0 121 73" xmlns="http://www.w3.org/2000/svg"><path d="M48.071 3.807c-1.083 4.737-6.479 25.18-6.479 25.18-.273-.245-.535-.487-.839-.719-3.06-2.273-7.469-3.076-12.787-3.076-3.979 0-7.596.617-10.872 1.852-3.281 1.244-6.243 3.099-8.879 5.575-2.612 2.548-4.629 5.451-6.063 8.729-1.44 3.276-2.153 6.672-2.153 10.199 0 6.159 1.928 11.055 5.773 14.687 3.841 3.636 9.049 5.448 15.592 5.448 8.497 0 16.309-4.744 21.711-11.135l-1.323-.988c-2.969 3.587-11.483 10.221-17.595 10.221-4.099 0-8.411-1.791-8.216-6.309.237-5.492 5.857-25.732 7.521-29.143 2.637-5.344 6.633-7.664 11.885-6.787 5.721.945 7.748 5.263 7.849 11.364h14.405l10.44-38.905c-6.419 2.78-13.099 3.752-19.973 3.807z" fill="#272F3F"/><path d="M86.348 10.93c3.496-2.408 7.339-3.612 11.528-3.612 5.013 0 9.5 1.617 13.459 4.849 3.958 3.233 6.662 7.884 8.114 13.953h1.93v-23.256h-1.93c-.232 1.683-.734 2.912-1.509 3.687-.776.776-1.691 1.163-2.745 1.163-.826 0-2.756-.593-5.79-1.781-5.245-2.044-10.226-3.068-14.942-3.068-6.4 0-12.444 1.584-18.135 4.751-.897.5-1.76 1.036-2.596 1.604l-12.297 45.516c.271.543.541 1.083.841 1.616 3.019 5.379 7.307 9.5 12.865 12.371 5.557 2.869 11.915 4.304 19.073 4.304 5.443 0 10.201-.883 14.274-2.647 4.074-1.764 7.992-4.609 11.752-8.535v-5.789c-3.893 4.519-7.594 7.703-11.108 9.549-3.513 1.848-7.381 2.771-11.602 2.771-5.147 0-9.336-1.261-12.568-3.785-3.233-2.523-5.608-6.249-7.125-11.183-1.517-4.931-2.276-10.397-2.276-16.401 0-6.103 1.039-11.644 3.117-16.625 1.616-3.892 4.172-7.041 7.669-9.451z" fill="#7BBBC7"/></svg>