<svg viewBox="0 0 113 72" xmlns="http://www.w3.org/2000/svg"><path d="M103.521 61.028l-.678-9.011c-1.062-8.533-5.098-13.689-19.246-13.995v-.276c15.291-2.235 20.4-9.367 20.4-17.609 0-8.713-6.739-16.377-26.948-16.377h-2.195l-.456 1.705c9.909.568 13.041 6.271 13.041 15.737 0 11.631-2.593 16.153-13.861 16.153h-7.693l-.411 1.549h6.664c10.683 0 13.281 2.649 14.151 12.527l.667 8.135c.683 8.328 2.693 12.115 16.183 12.115 3.071 0 6.44-.096 10.295-.58v-1.256c-7.71-.291-8.948-1.46-9.912-8.817z" fill="#4B674E"/><path d="M48.094 3.807c-1.083 4.737-6.479 25.18-6.479 25.18-.273-.245-.535-.487-.839-.719-3.06-2.273-7.469-3.076-12.787-3.076-3.979 0-7.596.617-10.872 1.852-3.281 1.244-6.243 3.099-8.879 5.575-2.612 2.548-4.629 5.451-6.063 8.729-1.44 3.276-2.153 6.672-2.153 10.199 0 6.159 1.928 11.055 5.773 14.687 3.841 3.636 9.049 5.448 15.592 5.448 8.497 0 16.309-4.744 21.711-11.135l-1.323-.988c-2.969 3.587-11.483 10.221-17.595 10.221-4.099 0-8.411-1.791-8.216-6.309.237-5.492 5.857-25.732 7.521-29.143 2.637-5.344 6.633-7.664 11.885-6.787 5.721.945 7.748 5.263 7.849 11.364h14.405l10.44-38.905c-6.419 2.78-13.099 3.752-19.973 3.807z" fill="#272F3F"/></svg>