<svg width="24" height="24" viewBox="0 0 24 24" xmlns="http://www.w3.org/2000/svg" opacity="0.7">
    <path d="M22.4616 4.30776H1.53848C0.688594 4.30776 0 3.61916 0 2.76932C0 1.91948 0.688594 1.23083 1.53848 1.23083H22.4616C23.3114 1.23083 24 1.91943 24 2.76932C24 3.61921 23.3114 4.30776 22.4616 4.30776Z" fill="#4F4F4F"/>
    <path d="M13.8462 13.5384H1.53848C0.688594 13.5384 0 12.8498 0 11.9999C0 11.1501 0.688594 10.4614 1.53848 10.4614H13.8462C14.696 10.4614 15.3847 11.15 15.3847 11.9999C15.3847 12.8498 14.696 13.5384 13.8462 13.5384Z" fill="#4F4F4F"/>
    <path d="M22.4615 13.5383H19.9999C19.1501 13.5383 18.4614 12.8497 18.4614 11.9998C18.4614 11.1499 19.15 10.4613 19.9999 10.4613H22.4615C23.3113 10.4613 23.9999 11.1499 23.9999 11.9998C23.9999 12.8497 23.3113 13.5383 22.4615 13.5383Z" fill="#B88530"/>
    <path d="M22.4616 22.7694H1.53848C0.688594 22.7694 0 22.0807 0 21.2309C0 20.3811 0.688594 19.6924 1.53848 19.6924H22.4616C23.3114 19.6924 24 20.381 24 21.2309C24 22.0807 23.3114 22.7694 22.4616 22.7694Z" fill="#4F4F4F"/>
</svg>
