<svg viewBox="0 0 175 112" xmlns="http://www.w3.org/2000/svg"><path d="M12.175 87.178c1.349 0 2.453.205 3.312.613.879.388 1.656.848 2.331 1.38.409.307.716.347.92.123.225-.245.378-.808.46-1.687h.705c-.041.797-.072 1.768-.092 2.913-.021 1.124-.031 2.627-.031 4.508h-.705c-.102-.941-.235-1.738-.399-2.392-.164-.675-.388-1.268-.675-1.779-.286-.511-.695-.971-1.227-1.38-.511-.511-1.104-.889-1.779-1.135-.675-.245-1.38-.368-2.116-.368-1.104 0-2.044.296-2.821.889-.777.572-1.411 1.36-1.901 2.361-.47 1.002-.818 2.136-1.043 3.404-.225 1.247-.337 2.545-.337 3.895 0 1.37.112 2.688.337 3.956.245 1.247.613 2.361 1.104 3.343.511.981 1.165 1.758 1.963 2.33.797.573 1.738.859 2.821.859.675 0 1.349-.123 2.024-.368.695-.266 1.288-.644 1.779-1.135.797-.613 1.339-1.369 1.625-2.269.286-.92.501-2.136.644-3.649h.705c0 1.942.01 3.516.031 4.722.02 1.186.051 2.188.092 3.006h-.705c-.082-.879-.225-1.431-.429-1.656-.184-.225-.501-.195-.951.092-.756.531-1.564 1.001-2.423 1.41-.838.389-1.922.583-3.251.583-2.167 0-4.068-.44-5.704-1.319-1.615-.879-2.872-2.146-3.772-3.802-.9-1.656-1.349-3.65-1.349-5.98 0-2.29.46-4.293 1.38-6.011.94-1.717 2.218-3.056 3.833-4.017 1.636-.961 3.516-1.441 5.643-1.441zm19.966.429c4.027 0 7.023.92 8.985 2.76 1.963 1.82 2.944 4.436 2.944 7.851 0 2.229-.48 4.181-1.441 5.858-.961 1.656-2.361 2.944-4.201 3.864-1.82.92-4.007 1.38-6.563 1.38-.491 0-1.196-.011-2.116-.031-.9-.041-1.687-.061-2.361-.061-.899 0-1.789.01-2.668.03-.859 0-1.543.021-2.055.062v-.614c.654-.041 1.145-.122 1.472-.245.327-.123.542-.368.644-.736.123-.368.184-.92.184-1.656v-15.211c0-.756-.061-1.308-.184-1.656-.102-.368-.327-.613-.675-.736-.327-.143-.808-.225-1.441-.245v-.613c.511.02 1.196.051 2.055.092.879.02 1.748.02 2.607 0 .736-.021 1.564-.041 2.484-.061.94-.02 1.717-.031 2.331-.031zm-.031.552c-.941 0-1.554.174-1.84.521-.286.347-.429 1.053-.429 2.116v15.333c0 1.063.143 1.769.429 2.116.307.348.93.522 1.871.522 1.717 0 3.067-.399 4.048-1.196 1.002-.818 1.717-2.004 2.147-3.558.429-1.553.644-3.445.644-5.673 0-3.435-.532-5.99-1.595-7.667-1.063-1.676-2.821-2.515-5.275-2.515zm22.03-.951c1.206 0 2.136.133 2.791.399.654.245 1.216.511 1.687.797l.583.337c.164.061.317.092.46.092.327 0 .552-.45.675-1.349h.705c-.02.388-.051.859-.092 1.411-.02.531-.041 1.237-.061 2.116v3.465h-.705c-.082-1.063-.327-2.096-.736-3.097-.409-1.002-.992-1.82-1.748-2.453-.736-.654-1.646-.981-2.729-.981-.981 0-1.789.276-2.423.828-.634.552-.951 1.319-.951 2.3 0 .818.204 1.523.613 2.116.409.572 1.002 1.135 1.779 1.687l2.883 1.993c.981.634 1.86 1.267 2.637 1.901.777.634 1.4 1.35 1.871 2.147.47.797.705 1.748.705 2.852 0 1.349-.358 2.464-1.073 3.343-.695.879-1.615 1.543-2.76 1.993-1.145.429-2.402.644-3.772.644-1.268 0-2.28-.123-3.036-.368-.756-.245-1.39-.501-1.901-.767-.45-.286-.797-.429-1.043-.429-.327 0-.552.45-.675 1.349h-.705c.041-.49.061-1.063.061-1.717.02-.654.031-1.503.031-2.545.02-1.063.031-2.403.031-4.018h.705c.082 1.35.307 2.617.675 3.803.389 1.165.971 2.106 1.748 2.821.797.716 1.85 1.074 3.159 1.074 1.063 0 1.963-.287 2.699-.859.736-.572 1.104-1.431 1.104-2.576 0-1.268-.429-2.31-1.288-3.128-.859-.838-1.963-1.697-3.312-2.576-.961-.634-1.861-1.268-2.699-1.901-.838-.634-1.513-1.36-2.024-2.177-.491-.818-.736-1.789-.736-2.913 0-1.288.317-2.341.951-3.159.654-.838 1.503-1.451 2.545-1.84 1.063-.409 2.188-.613 3.373-.613zm43.773.399v.613c-.654.02-1.145.102-1.472.245-.327.123-.552.368-.675.736-.102.348-.153.9-.153 1.656v15.211c0 .736.051 1.288.153 1.656.123.368.348.613.675.736.327.123.818.204 1.472.245v.614c-.572-.041-1.298-.062-2.177-.062-.859-.02-1.738-.03-2.637-.03-.981 0-1.901.01-2.76.03-.859 0-1.554.021-2.085.062v-.614c.695-.041 1.216-.122 1.564-.245.368-.123.613-.368.736-.736s.184-.92.184-1.656v-16.591h.215l-7.605 19.872h-.491l-8.28-19.749v14.689c0 1.125.061 1.994.184 2.607.123.593.388 1.022.797 1.288.429.245 1.094.419 1.993.521v.614c-.388-.041-.9-.062-1.533-.062-.634-.02-1.227-.03-1.779-.03-.47 0-.951.01-1.441.03-.491 0-.9.021-1.227.062v-.614c.654-.102 1.145-.276 1.472-.521.327-.245.542-.644.644-1.196.123-.572.184-1.349.184-2.331v-13.8c0-.756-.061-1.308-.184-1.656-.102-.368-.327-.613-.675-.736-.327-.143-.808-.225-1.441-.245v-.613c.327.02.736.041 1.227.061.491.02.971.031 1.441.031.879 0 1.738-.01 2.576-.031.859-.02 1.615-.041 2.269-.061l6.44 15.548-.767.705 6.164-16.161h2.177c.9 0 1.779-.01 2.637-.031.879-.02 1.605-.041 2.177-.061zm18.454 0c-.081.9-.143 1.768-.184 2.607-.02.838-.03 1.482-.03 1.932 0 .409.01.797.03 1.165.021.368.041.675.062.92h-.706c-.204-1.493-.521-2.668-.95-3.527-.43-.879-.992-1.492-1.687-1.84-.675-.368-1.472-.552-2.392-.552h-1.257c-.614 0-1.074.051-1.38.153-.287.102-.481.307-.583.613-.102.286-.153.756-.153 1.411v15.947c0 .634.051 1.104.153 1.411.102.306.296.511.583.613.306.102.766.153 1.38.153h1.502c.92 0 1.728-.194 2.423-.582.716-.409 1.319-1.094 1.809-2.055.511-.961.9-2.259 1.166-3.895h.705c-.061.655-.092 1.513-.092 2.576 0 .471.01 1.135.031 1.994.02.858.081 1.748.184 2.668-1.043-.041-2.219-.062-3.527-.062-1.308-.02-2.474-.03-3.496-.03h-2.76c-1.145 0-2.361.01-3.649.03-1.288 0-2.484.021-3.588.062v-.614c.654-.041 1.145-.122 1.472-.245.327-.123.541-.368.644-.736.122-.368.184-.92.184-1.656v-15.211c0-.756-.062-1.308-.184-1.656-.103-.368-.327-.613-.675-.736-.327-.143-.808-.225-1.441-.245v-.613c1.104.02 2.3.041 3.588.061 1.288.02 2.504.031 3.649.031h5.949c1.207-.021 2.28-.051 3.22-.092zm-4.784 10.488v.614h-5.366v-.614h5.366zm.89-4.048c-.082 1.165-.123 2.055-.123 2.668.02.613.031 1.175.031 1.687 0 .511.01 1.073.03 1.687.021.613.072 1.503.154 2.668h-.706c-.102-.716-.296-1.38-.582-1.993-.266-.614-.655-1.104-1.166-1.472-.511-.389-1.175-.583-1.993-.583v-.613c.818 0 1.472-.225 1.963-.675.49-.45.869-.981 1.134-1.595.266-.634.45-1.227.552-1.779h.706zm16.4-6.44c4.027 0 7.022.92 8.985 2.76 1.963 1.82 2.944 4.436 2.944 7.851 0 2.229-.48 4.181-1.441 5.858-.961 1.656-2.362 2.944-4.202 3.864-1.819.92-4.007 1.38-6.562 1.38-.491 0-1.196-.011-2.116-.031-.9-.041-1.687-.061-2.362-.061-.899 0-1.788.01-2.668.03-.858 0-1.543.021-2.054.062v-.614c.654-.041 1.145-.122 1.472-.245.327-.123.542-.368.644-.736.122-.368.184-.92.184-1.656v-15.211c0-.756-.062-1.308-.184-1.656-.102-.368-.327-.613-.675-.736-.327-.143-.807-.225-1.441-.245v-.613c.511.02 1.196.051 2.054.092.88.02 1.748.02 2.607 0 .736-.021 1.564-.041 2.484-.061.941-.02 1.717-.031 2.331-.031zm-.031.552c-.94 0-1.554.174-1.84.521-.286.347-.429 1.053-.429 2.116v15.333c0 1.063.143 1.769.429 2.116.307.348.93.522 1.871.522 1.717 0 3.066-.399 4.048-1.196 1.002-.818 1.717-2.004 2.146-3.558.43-1.553.644-3.445.644-5.673 0-3.435-.531-5.99-1.594-7.667-1.063-1.676-2.822-2.515-5.275-2.515zm23.57-.552v.613c-.654.02-1.155.102-1.503.245-.327.123-.542.368-.644.736-.102.348-.153.9-.153 1.656v15.211c0 .736.051 1.288.153 1.656.123.368.348.613.675.736.327.123.818.204 1.472.245v.614c-.552-.041-1.247-.062-2.085-.062-.839-.02-1.687-.03-2.546-.03-1.002 0-1.932.01-2.79.03-.839 0-1.524.021-2.055.062v-.614c.654-.041 1.145-.122 1.472-.245.327-.123.542-.368.644-.736.123-.368.184-.92.184-1.656v-15.211c0-.756-.061-1.308-.184-1.656-.102-.368-.327-.613-.675-.736-.327-.143-.807-.225-1.441-.245v-.613c.531.02 1.216.041 2.055.061.858.02 1.788.031 2.79.031.859 0 1.707-.01 2.546-.031.838-.02 1.533-.041 2.085-.061zm12.297-.061l7.452 19.198c.286.736.603 1.247.95 1.533.368.266.695.409.982.429v.614c-.614-.041-1.34-.062-2.178-.062-.818-.02-1.646-.03-2.484-.03-.94 0-1.83.01-2.668.03-.838 0-1.502.021-1.993.062v-.614c1.043-.041 1.697-.214 1.963-.521.286-.327.224-1.012-.184-2.055l-5.214-14.26.552-.797-4.661 12.144c-.573 1.513-.859 2.658-.859 3.435.021.777.276 1.308.767 1.594.491.266 1.145.419 1.963.46v.614c-.675-.041-1.319-.062-1.932-.062-.614-.02-1.237-.03-1.871-.03-.45 0-.879.01-1.288.03-.389 0-.736.021-1.043.062v-.614c.43-.081.869-.357 1.319-.828.45-.47.889-1.267 1.319-2.392l6.992-17.94c.327.02.674.031 1.042.031.389 0 .746-.01 1.074-.031zm2.146 12.942v.613h-9.138l.306-.613h8.832z" fill="#272F3F"/><path d="M145.541 9.783c.494-1.088 1.153-1.863 1.978-2.325 1.188-.693 2.772-1.039 4.751-1.039h2.177v-1.831h-27.313l-18.208 44.233-18.852-44.233h-3.133c-2.22 7.872-2.389 13.984-4.947 20.681l19.956 46.412h1.187l25.729-61.205v49.725c0 3.365-.183 5.443-.544 6.235-.495 1.123-1.155 1.915-1.979 2.375-1.188.693-2.772 1.04-4.75 1.04h-2.178v1.831h35.032v-1.831h-2.177c-1.88 0-3.381-.321-4.503-.965-1.122-.643-1.865-1.393-2.226-2.251-.363-.857-.544-3.001-.544-6.433v-44.233c0-3.331.181-5.393.544-6.185z" fill="#C36743"/><path d="M69.071 3.807c-1.083 4.737-6.479 25.18-6.479 25.18-.273-.245-.535-.487-.839-.719-3.06-2.273-7.469-3.076-12.787-3.076-3.979 0-7.596.617-10.872 1.852-3.281 1.244-6.243 3.099-8.879 5.575-2.612 2.548-4.629 5.451-6.063 8.729-1.44 3.276-2.153 6.672-2.153 10.199 0 6.159 1.928 11.055 5.773 14.687 3.841 3.636 9.049 5.448 15.592 5.448 8.497 0 16.309-4.744 21.711-11.135l-1.323-.988c-2.969 3.587-11.483 10.221-17.595 10.221-4.099 0-8.411-1.791-8.216-6.309.237-5.492 5.857-25.732 7.521-29.143 2.637-5.344 6.633-7.664 11.885-6.787 5.721.945 7.748 5.263 7.849 11.364h14.405l10.44-38.905c-6.419 2.78-13.099 3.752-19.973 3.807z" fill="#272F3F"/></svg>