<svg viewBox="0 0 281 107" xmlns="http://www.w3.org/2000/svg"><path d="M132.094 3.806c-1.083 4.737-6.479 25.18-6.479 25.18-.273-.245-.535-.487-.839-.719-3.06-2.273-7.469-3.076-12.786-3.076-3.979 0-7.596.617-10.872 1.852-3.282 1.244-6.243 3.099-8.879 5.575-2.612 2.548-4.629 5.451-6.063 8.729-1.44 3.276-2.153 6.672-2.153 10.199 0 6.159 1.928 11.055 5.773 14.687 3.841 3.636 9.049 5.448 15.592 5.448 8.498 0 16.31-4.744 21.711-11.135l-1.323-.988c-2.969 3.587-11.482 10.221-17.594 10.221-4.099 0-8.411-1.791-8.216-6.309.237-5.492 5.857-25.732 7.521-29.143 2.637-5.344 6.633-7.664 11.885-6.787 5.722.945 7.748 5.263 7.85 11.364h14.405l10.44-38.905c-6.419 2.78-13.099 3.752-19.973 3.807z" fill="#272F3F"/><path d="M187.521 61.028l-.678-9.011c-1.062-8.533-5.098-13.689-19.246-13.995v-.276c15.29-2.235 20.4-9.367 20.4-17.609 0-8.713-6.739-16.377-26.948-16.377h-2.195l-.456 1.705c9.909.568 13.041 6.271 13.041 15.737 0 11.631-2.593 16.153-13.861 16.153h-7.693l-.411 1.549h6.664c10.683 0 13.281 2.649 14.151 12.527l.666 8.135c.683 8.328 2.694 12.115 16.183 12.115 3.071 0 6.44-.096 10.295-.58v-1.256c-7.71-.291-8.948-1.46-9.912-8.817z" fill="#4B674E"/><path d="M0 96.791c0-7.011 5.128-11.167 11.099-11.167 2.167 0 4.101.615 5.477 1.385l1.377-1.533h.349v8.047h-.464c-2.087-4.513-3.841-7.339-7.237-7.339-3.221 0-5.237 3.651-5.237 9.901 0 6.458 2.751 9.844 6.496 9.844 3.015 0 5.061-1.329 6.564-4.628l.555.266c-1.26 2.888-3.689 5.601-8.785 5.601-6.412 0-10.193-3.893-10.193-10.377zm123.974 1.505l-2.959-8.344h-.148l-3.073 8.344h6.18zm.208.585h-6.588l-1.057 2.834c-1.107 2.972-.612 4.157 2.109 4.54v.411h-6.972v-.411c1.936-.505 3.107-1.888 4.217-4.805l5.976-15.739h2.579l6.673 18.273c.552 1.5.998 1.914 3.162 2.271v.411h-11.156v-.411c2.813-.149 3.398-.74 2.87-2.213l-1.813-5.16zm-47.049-2.882c3.427 0 4.216-1.033 4.216-4.571 0-3.039-1.057-4.804-4.479-4.804h-1.409v9.375h1.672zm-1.672 8.75c0 1.092.909 1.414 2.755 1.505v.412h-10.599v-.412c2.373-.091 2.925-.473 2.925-1.505v-16.711c0-1.028-.552-1.443-2.925-1.533v-.383h10.571c6.148 0 8.197 2.331 8.197 4.981 0 2.508-1.555 4.333-6.205 5.013v.083c4.303.095 5.532 2.005 5.855 4.603l.205 2.741c.295 2.238.672 2.592 3.016 2.683v.38c-1.172.148-2.199.177-3.133.177-4.101 0-4.713-1.15-4.921-3.685l-.201-2.473c-.265-3.006-1.055-4.156-4.304-4.156h-1.235v8.28zm60.133 1.506c2.372-.091 2.929-.474 2.929-1.506v-16.71c0-1.029-.557-1.443-2.929-1.535v-.383h10.745v.383c-2.428.092-2.901.475-2.901 1.535v18.097h1.317c4.396 0 5.771-1.651 8.467-7.487l.465.031-.26 7.989h-17.833v-.412zm-91.844-6.665h.469c2.109 4.276 4.747 6.902 7.465 6.902 2.461 0 3.811-1.626 3.811-3.511 0-2.183-1.729-3.419-5.157-4.536-3.224-1.063-6.383-2.36-6.383-6.16 0-3.921 2.873-6.544 7.115-6.544 1.729 0 3.399.56 4.568 1.237l1.407-1.416h.353v6.783h-.471c-2.167-4.189-4.068-6.044-6.265-6.044-1.756 0-3.485 1.147-3.485 3.271 0 2.152 1.789 3.303 5.271 4.391 2.784.885 5.917 2.211 5.917 6.044 0 3.595-2.167 7.043-7.175 7.043-1.672 0-3.927-.557-5.419-1.417l-1.672 1.537h-.349v-7.579zm-13.886 6.544c4.536 0 6.263-2.268 6.263-9.784 0-7.516-2.192-9.727-6.44-9.727h-1.523v19.51h1.7zm-9.547.12c2.372-.092 2.929-.474 2.929-1.505v-16.711c0-1.029-.557-1.443-2.929-1.535v-.383h9.929c7.521 0 11.153 4.04 11.153 9.877 0 5.598-2.927 10.667-10.627 10.667h-10.456v-.411zm70.397.001c2.372-.091 2.927-.474 2.927-1.506v-16.71c0-1.029-.555-1.443-2.927-1.535v-.383h17.89l.091 7.284-.471.055c-2.316-4.891-3.281-6.836-6.972-6.836h-2.692v9.139h.965c2.313 0 3.721-1.092 4.508-3.98h.382v8.519h-.382c-.787-2.919-2.195-4.038-4.508-4.038h-.965v9.873h2.49c4.364 0 5.56-1.768 7.934-7.222l.47.063-.147 7.691h-18.593v-.412zm73.333 0c2.372-.091 2.927-.474 2.927-1.506v-16.71c0-1.029-.555-1.443-2.927-1.535v-.383h17.891l.09 7.284-.47.055c-2.316-4.891-3.282-6.836-6.972-6.836h-2.692v9.139h.965c2.313 0 3.721-1.092 4.508-3.98h.383v8.519h-.383c-.787-2.919-2.195-4.038-4.508-4.038h-.965v9.873h2.489c4.364 0 5.56-1.768 7.935-7.222l.469.063-.147 7.691h-18.593v-.412zm21.036-6.665h.47c2.109 4.276 4.746 6.902 7.465 6.902 2.461 0 3.811-1.626 3.811-3.511 0-2.183-1.73-3.419-5.158-4.536-3.224-1.063-6.382-2.36-6.382-6.16 0-3.921 2.873-6.544 7.114-6.544 1.73 0 3.399.56 4.568 1.237l1.407-1.416h.353v6.783h-.47c-2.167-4.189-4.068-6.044-6.266-6.044-1.756 0-3.485 1.147-3.485 3.271 0 2.152 1.789 3.303 5.271 4.391 2.784.885 5.917 2.211 5.917 6.044 0 3.595-2.167 7.043-7.175 7.043-1.672 0-3.926-.557-5.418-1.417l-1.672 1.537h-.35v-7.579zm35.331-13.44v5.552h-.533c-.316-1.281-.667-2.2-1.052-2.76-.387-.56-.915-1.005-1.587-1.339-.375-.183-1.031-.273-1.968-.273h-1.499v15.825c0 1.05.058 1.706.17 1.967.114.263.336.492.666.687.331.198.784.297 1.358.297h.666v.56h-10.521v-.56h.667c.584 0 1.052-.107 1.409-.317.255-.142.459-.384.607-.727.109-.243.164-.879.164-1.907v-15.825h-1.454c-1.353 0-2.336.293-2.948.877-.861.817-1.402 1.981-1.629 3.495h-.565v-5.552h18.049zm11.56 12.146l-2.959-8.344h-.148l-3.073 8.344h6.18zm.208.585h-6.588l-1.057 2.834c-1.107 2.972-.612 4.157 2.109 4.54v.411h-6.972v-.411c1.936-.505 3.107-1.888 4.217-4.805l5.976-15.739h2.579l6.673 18.273c.552 1.5.998 1.914 3.162 2.271v.411h-11.156v-.411c2.813-.149 3.398-.74 2.87-2.213l-1.813-5.16zm30.532 7.374c2.372-.091 2.926-.474 2.926-1.506v-16.71c0-1.029-.554-1.443-2.926-1.535v-.383h17.89l.091 7.284-.471.055c-2.316-4.891-3.281-6.836-6.972-6.836h-2.692v9.139h.966c2.313 0 3.721-1.092 4.508-3.98h.382v8.519h-.382c-.787-2.919-2.195-4.038-4.508-4.038h-.966v9.873h2.49c4.364 0 5.56-1.768 7.934-7.222l.47.063-.147 7.691h-18.593v-.412zm-2.3-20.16v5.565h-.533c-.316-1.284-.667-2.205-1.052-2.768-.387-.56-.915-1.008-1.587-1.341-.375-.183-1.031-.273-1.968-.273h-1.499v15.867c0 1.052.058 1.71.17 1.974.114.263.336.492.666.687.331.199.784.297 1.358.297h.666v.563h-10.521v-.563h.667c.584 0 1.052-.106 1.409-.317.255-.141.459-.385.607-.729.109-.243.164-.878.164-1.912v-15.867h-1.454c-1.353 0-2.336.293-2.948.88-.861.82-1.402 1.987-1.629 3.503h-.565v-5.565h18.049z" fill="#272F3F"/></svg>