<svg viewBox="0 0 271 113" xmlns="http://www.w3.org/2000/svg"><path d="M12.175 87.374c1.349 0 2.453.205 3.312.613.879.388 1.656.848 2.331 1.38.409.307.716.347.92.123.225-.245.378-.807.46-1.687h.705c-.041.797-.072 1.768-.092 2.913-.021 1.124-.031 2.627-.031 4.508h-.705c-.102-.94-.235-1.738-.399-2.392-.164-.675-.388-1.268-.675-1.779-.286-.511-.695-.971-1.227-1.38-.511-.511-1.104-.889-1.779-1.135-.675-.245-1.38-.368-2.116-.368-1.104 0-2.044.296-2.821.889-.777.572-1.411 1.36-1.901 2.361-.47 1.002-.818 2.136-1.043 3.404-.225 1.247-.337 2.545-.337 3.895 0 1.37.112 2.689.337 3.956.245 1.247.613 2.362 1.104 3.343.511.981 1.165 1.758 1.963 2.331.797.572 1.738.858 2.821.858.675 0 1.349-.122 2.024-.368.695-.265 1.288-.644 1.779-1.134.797-.614 1.339-1.37 1.625-2.27.286-.92.501-2.136.644-3.649h.705c0 1.942.01 3.516.031 4.723.02 1.185.051 2.187.092 3.005h-.705c-.082-.879-.225-1.431-.429-1.656-.184-.225-.501-.194-.951.092-.756.532-1.564 1.002-2.423 1.411-.838.388-1.922.582-3.251.582-2.167 0-4.068-.439-5.704-1.318-1.615-.879-2.872-2.147-3.772-3.803-.9-1.656-1.349-3.649-1.349-5.98 0-2.29.46-4.293 1.38-6.011.94-1.717 2.218-3.056 3.833-4.017 1.636-.961 3.516-1.441 5.643-1.441zm19.966.429c4.027 0 7.023.92 8.985 2.76 1.963 1.819 2.944 4.436 2.944 7.851 0 2.228-.48 4.181-1.441 5.857-.961 1.656-2.361 2.944-4.201 3.864-1.82.92-4.007 1.38-6.563 1.38-.491 0-1.196-.01-2.116-.031-.9-.041-1.687-.061-2.361-.061-.899 0-1.789.01-2.668.031-.859 0-1.543.02-2.055.061v-.613c.654-.041 1.145-.123 1.472-.246.327-.122.542-.368.644-.736.123-.368.184-.92.184-1.656v-15.21c0-.756-.061-1.308-.184-1.656-.102-.368-.327-.613-.675-.736-.327-.143-.808-.225-1.441-.245v-.613c.511.02 1.196.051 2.055.092.879.02 1.748.02 2.607 0 .736-.02 1.564-.041 2.484-.061.94-.02 1.717-.031 2.331-.031zm-.031.552c-.941 0-1.554.174-1.84.521-.286.348-.429 1.053-.429 2.116v15.334c0 1.063.143 1.768.429 2.116.307.347.93.521 1.871.521 1.717 0 3.067-.399 4.048-1.196 1.002-.818 1.717-2.004 2.147-3.557.429-1.554.644-3.445.644-5.674 0-3.435-.532-5.99-1.595-7.667-1.063-1.676-2.821-2.515-5.275-2.515zm22.03-.951c1.206 0 2.136.133 2.791.399.654.245 1.216.511 1.687.797l.583.337c.164.061.317.092.46.092.327 0 .552-.45.675-1.349h.705c-.02.388-.051.859-.092 1.411-.02.532-.041 1.237-.061 2.116v3.465h-.705c-.082-1.063-.327-2.096-.736-3.097-.409-1.002-.992-1.82-1.748-2.453-.736-.654-1.646-.981-2.729-.981-.981 0-1.789.276-2.423.828-.634.552-.951 1.319-.951 2.3 0 .818.204 1.523.613 2.116.409.572 1.002 1.135 1.779 1.687l2.883 1.993c.981.634 1.86 1.268 2.637 1.901.777.634 1.4 1.349 1.871 2.146.47.798.705 1.748.705 2.852 0 1.35-.358 2.464-1.073 3.343-.695.879-1.615 1.544-2.76 1.993-1.145.43-2.402.644-3.772.644-1.268 0-2.28-.122-3.036-.368-.756-.245-1.39-.501-1.901-.766-.45-.287-.797-.43-1.043-.43-.327 0-.552.45-.675 1.35h-.705c.041-.491.061-1.063.061-1.718.02-.654.031-1.502.031-2.545.02-1.063.031-2.402.031-4.017h.705c.082 1.349.307 2.617.675 3.802.389 1.166.971 2.106 1.748 2.822.797.715 1.85 1.073 3.159 1.073 1.063 0 1.963-.286 2.699-.859.736-.572 1.104-1.431 1.104-2.576 0-1.267-.429-2.31-1.288-3.128-.859-.838-1.963-1.697-3.312-2.576-.961-.633-1.861-1.267-2.699-1.901-.838-.634-1.513-1.36-2.024-2.177-.491-.818-.736-1.789-.736-2.913 0-1.288.317-2.341.951-3.159.654-.838 1.503-1.452 2.545-1.84 1.063-.409 2.188-.613 3.373-.613zm28.532-.031c1.349 0 2.453.205 3.312.613.879.388 1.656.848 2.331 1.38.409.307.716.347.92.123.225-.245.378-.807.46-1.687h.705c-.041.797-.072 1.768-.092 2.913-.02 1.124-.031 2.627-.031 4.508h-.705c-.102-.94-.235-1.738-.399-2.392-.164-.675-.389-1.268-.675-1.779-.286-.511-.695-.971-1.227-1.38-.511-.511-1.104-.889-1.779-1.135-.675-.245-1.38-.368-2.116-.368-1.104 0-2.044.296-2.821.889-.777.572-1.411 1.36-1.901 2.361-.47 1.002-.818 2.136-1.043 3.404-.225 1.247-.337 2.545-.337 3.895 0 1.37.113 2.689.337 3.956.245 1.247.613 2.362 1.104 3.343.511.981 1.165 1.758 1.963 2.331.797.572 1.738.858 2.821.858.675 0 1.349-.122 2.024-.368.695-.265 1.288-.644 1.779-1.134.797-.614 1.339-1.37 1.625-2.27.286-.92.501-2.136.644-3.649h.705c0 1.942.01 3.516.031 4.723.02 1.185.051 2.187.092 3.005h-.705c-.082-.879-.225-1.431-.429-1.656-.184-.225-.501-.194-.951.092-.756.532-1.564 1.002-2.423 1.411-.838.388-1.922.582-3.251.582-2.167 0-4.069-.439-5.704-1.318-1.615-.879-2.873-2.147-3.772-3.803-.9-1.656-1.349-3.649-1.349-5.98 0-2.29.46-4.293 1.38-6.011.94-1.717 2.218-3.056 3.833-4.017 1.636-.961 3.516-1.441 5.643-1.441zm21.622 0c2.168 0 4.059.44 5.674 1.319 1.635.879 2.903 2.147 3.802 3.803.9 1.635 1.35 3.629 1.35 5.98 0 2.29-.46 4.293-1.38 6.011-.92 1.717-2.208 3.056-3.864 4.017-1.636.961-3.506 1.441-5.612 1.441-2.167 0-4.069-.439-5.704-1.318-1.615-.879-2.873-2.147-3.772-3.803-.9-1.656-1.349-3.649-1.349-5.98 0-2.29.46-4.293 1.38-6.011.94-1.717 2.218-3.056 3.833-4.017 1.635-.961 3.516-1.441 5.642-1.441zm-.122.552c-1.145 0-2.147.46-3.006 1.38-.838.92-1.492 2.188-1.962 3.803-.45 1.615-.675 3.486-.675 5.612 0 2.167.256 4.059.767 5.674.531 1.594 1.237 2.831 2.116 3.71.899.859 1.891 1.288 2.974 1.288 1.145 0 2.137-.46 2.975-1.38.859-.92 1.513-2.187 1.963-3.802.47-1.636.705-3.507.705-5.612 0-2.188-.266-4.079-.797-5.673-.511-1.595-1.217-2.821-2.116-3.68-.879-.879-1.861-1.319-2.944-1.319zm33.278-.123v.613c-.654.082-1.145.256-1.472.521-.327.245-.552.644-.675 1.196-.102.552-.153 1.329-.153 2.331v17.112c-.245-.02-.501-.03-.767-.03-.245 0-.511.01-.797.03l-13.309-16.866v11.776c0 1.124.061 1.993.184 2.606.122.593.388 1.023.797 1.288.429.246 1.094.419 1.993.522v.613c-.388-.041-.899-.061-1.533-.061-.634-.021-1.227-.031-1.779-.031-.47 0-.95.01-1.441.031-.491 0-.9.02-1.227.061v-.613c.654-.103 1.145-.276 1.472-.522.327-.245.542-.644.644-1.196.123-.572.184-1.349.184-2.33v-13.8c0-.756-.061-1.308-.184-1.656-.102-.368-.327-.613-.674-.736-.328-.143-.808-.225-1.442-.245v-.613c.327.02.736.041 1.227.061.491.02.971.031 1.441.031.491 0 .961-.01 1.411-.031l1.227-.061 11.868 14.628v-9.599c0-1.124-.062-1.983-.184-2.576-.123-.613-.399-1.053-.828-1.319-.409-.266-1.064-.44-1.963-.521v-.613c.388.02.899.041 1.533.061.634.02 1.227.031 1.779.031.491 0 .971-.01 1.441-.031.491-.02.9-.041 1.227-.061zm9.589-.399c1.206 0 2.136.133 2.79.399.655.245 1.217.511 1.687.797l.583.337c.163.061.317.092.46.092.327 0 .552-.45.674-1.349h.706c-.021.388-.051.859-.092 1.411-.021.532-.041 1.237-.062 2.116v3.465h-.705c-.082-1.063-.327-2.096-.736-3.097-.409-1.002-.991-1.82-1.748-2.453-.736-.654-1.646-.981-2.729-.981-.982 0-1.789.276-2.423.828-.634.552-.951 1.319-.951 2.3 0 .818.205 1.523.614 2.116.409.572 1.002 1.135 1.778 1.687l2.883 1.993c.981.634 1.861 1.268 2.637 1.901.777.634 1.401 1.349 1.871 2.146.47.798.705 1.748.705 2.852 0 1.35-.357 2.464-1.073 3.343-.695.879-1.615 1.544-2.76 1.993-1.145.43-2.402.644-3.772.644-1.267 0-2.279-.122-3.036-.368-.756-.245-1.39-.501-1.901-.766-.45-.287-.798-.43-1.043-.43-.327 0-.552.45-.675 1.35h-.705c.041-.491.061-1.063.061-1.718.021-.654.031-1.502.031-2.545.021-1.063.031-2.402.031-4.017h.705c.082 1.349.307 2.617.675 3.802.388 1.166.971 2.106 1.748 2.822.797.715 1.85 1.073 3.158 1.073 1.064 0 1.963-.286 2.699-.859.736-.572 1.104-1.431 1.104-2.576 0-1.267-.429-2.31-1.288-3.128-.859-.838-1.963-1.697-3.312-2.576-.961-.633-1.86-1.267-2.699-1.901-.838-.634-1.512-1.36-2.024-2.177-.49-.818-.736-1.789-.736-2.913 0-1.288.317-2.341.951-3.159.654-.838 1.503-1.452 2.545-1.84 1.064-.409 2.188-.613 3.374-.613zm29.777.399v.613c-.655.082-1.156.256-1.503.521-.327.245-.542.644-.644 1.196-.102.552-.153 1.329-.153 2.331v8.127c0 1.329-.092 2.545-.276 3.649-.184 1.104-.512 2.055-.982 2.852-.531.879-1.308 1.575-2.33 2.086-1.023.511-2.321.766-3.895.766-.941 0-1.901-.112-2.883-.337-.981-.204-1.86-.603-2.637-1.196-.654-.552-1.155-1.176-1.503-1.871-.347-.695-.582-1.513-.705-2.453-.123-.961-.184-2.096-.184-3.404v-9.629c0-.756-.061-1.308-.184-1.656-.102-.368-.317-.613-.644-.736-.327-.143-.818-.225-1.472-.245v-.613c.511.02 1.196.041 2.055.061.879.02 1.788.031 2.729.031.94 0 1.84-.01 2.699-.031.879-.02 1.604-.041 2.177-.061v.613c-.695.02-1.227.102-1.595.245-.347.123-.582.368-.705.736-.123.348-.184.9-.184 1.656v11.561c0 1.37.123 2.525.368 3.465.245.92.675 1.615 1.288 2.086.634.47 1.492.705 2.576.705 1.431 0 2.545-.337 3.343-1.012.817-.675 1.39-1.605 1.717-2.791.347-1.206.521-2.586.521-4.14v-8.096c0-1.124-.071-1.983-.214-2.576-.144-.613-.43-1.053-.859-1.319-.409-.266-1.043-.44-1.901-.521v-.613c.388.02.899.041 1.533.061.634.02 1.227.031 1.779.031.49 0 .971-.01 1.441-.031.491-.02.899-.041 1.227-.061zm11.268 0v.613c-.695.02-1.226.102-1.595.245-.347.123-.582.368-.705.736-.123.348-.184.9-.184 1.656v15.578c0 .634.041 1.104.123 1.411.102.307.286.511.552.613.286.103.705.154 1.257.154h1.503c.94 0 1.789-.287 2.545-.859.777-.572 1.421-1.37 1.932-2.392.532-1.043.9-2.239 1.104-3.588h.705c-.061.695-.092 1.595-.092 2.699 0 .47.011 1.155.031 2.054.021.9.082 1.83.184 2.791-1.042-.041-2.218-.061-3.526-.061-1.309-.021-2.474-.031-3.497-.031h-2.76c-1.144 0-2.361.01-3.649.031-1.288 0-2.484.02-3.588.061v-.613c.654-.041 1.145-.123 1.472-.246.327-.122.542-.368.644-.736.123-.368.184-.92.184-1.656v-15.21c0-.756-.061-1.308-.184-1.656-.102-.368-.327-.613-.675-.736-.327-.143-.807-.225-1.441-.245v-.613c.511.02 1.196.041 2.055.061.879.02 1.809.031 2.79.031.9 0 1.779-.01 2.638-.031.879-.02 1.605-.041 2.177-.061zm25.666 0c-.081 1.043-.143 2.044-.184 3.005-.02.961-.03 1.697-.03 2.208 0 .45.01.879.03 1.288.021.409.041.757.062 1.043h-.706c-.327-1.717-.746-3.077-1.257-4.079-.491-1.002-1.083-1.707-1.779-2.116-.695-.429-1.512-.644-2.453-.644h-.705v17.511c0 .818.082 1.431.245 1.84.184.409.511.685.981.828.471.123 1.156.194 2.055.215v.613c-.634-.02-1.482-.041-2.545-.061-1.043-.021-2.137-.031-3.282-.031-1.124 0-2.187.01-3.189.031-1.002.02-1.809.041-2.423.061v-.613c.92-.021 1.616-.092 2.086-.215.47-.143.787-.419.95-.828.164-.409.246-1.022.246-1.84v-17.511h-.675c-.94 0-1.758.215-2.453.644-.695.409-1.288 1.114-1.779 2.116-.491.981-.92 2.341-1.288 4.079h-.705c.041-.286.061-.634.061-1.043.021-.409.031-.838.031-1.288 0-.511-.021-1.247-.062-2.208-.02-.961-.071-1.963-.153-3.005.941.02 1.963.041 3.067.061 1.124.02 2.249.031 3.373.031h6.072c1.125 0 2.249-.01 3.373-.031 1.125-.02 2.137-.041 3.036-.061zm11.316 0v.613c-.655.02-1.156.102-1.503.245-.327.123-.542.368-.644.736-.102.348-.153.9-.153 1.656v15.21c0 .736.051 1.288.153 1.656.123.368.347.614.675.736.327.123.817.205 1.472.246v.613c-.552-.041-1.248-.061-2.086-.061-.838-.021-1.686-.031-2.545-.031-1.002 0-1.932.01-2.791.031-.838 0-1.523.02-2.054.061v-.613c.654-.041 1.144-.123 1.472-.246.327-.122.541-.368.644-.736.122-.368.184-.92.184-1.656v-15.21c0-.756-.062-1.308-.184-1.656-.103-.368-.328-.613-.675-.736-.327-.143-.808-.225-1.441-.245v-.613c.531.02 1.216.041 2.054.061.859.02 1.789.031 2.791.031.859 0 1.707-.01 2.545-.031.838-.02 1.534-.041 2.086-.061zm22.263 0v.613c-.654.082-1.145.256-1.472.521-.327.245-.552.644-.675 1.196-.102.552-.153 1.329-.153 2.331v17.112c-.246-.02-.501-.03-.767-.03-.245 0-.511.01-.797.03l-13.31-16.866v11.776c0 1.124.062 1.993.184 2.606.123.593.389 1.023.798 1.288.429.246 1.094.419 1.993.522v.613c-.388-.041-.899-.061-1.533-.061-.634-.021-1.227-.031-1.779-.031-.47 0-.951.01-1.441.031-.491 0-.9.02-1.227.061v-.613c.654-.103 1.145-.276 1.472-.522.327-.245.542-.644.644-1.196.123-.572.184-1.349.184-2.33v-13.8c0-.756-.061-1.308-.184-1.656-.102-.368-.327-.613-.675-.736-.327-.143-.807-.225-1.441-.245v-.613c.327.02.736.041 1.227.061.49.02.971.031 1.441.031.491 0 .961-.01 1.411-.031l1.226-.061 11.868 14.628v-9.599c0-1.124-.061-1.983-.184-2.576-.122-.613-.398-1.053-.828-1.319-.408-.266-1.063-.44-1.962-.521v-.613c.388.02.899.041 1.533.061.634.02 1.227.031 1.779.031.49 0 .971-.01 1.441-.031.491-.02.9-.041 1.227-.061zm13.09-.429c1.39 0 2.525.194 3.404.583.879.389 1.666.859 2.361 1.411.245.184.45.276.613.276.389 0 .644-.613.767-1.84h.705c-.041.797-.071 1.768-.092 2.913-.02 1.124-.03 2.627-.03 4.508h-.706c-.143-1.227-.368-2.29-.674-3.189-.287-.92-.828-1.707-1.626-2.361-.49-.47-1.104-.838-1.84-1.104-.715-.266-1.441-.399-2.177-.399-1.124 0-2.085.296-2.883.889-.797.572-1.451 1.36-1.962 2.361-.511 1.002-.89 2.136-1.135 3.404-.245 1.247-.368 2.545-.368 3.895 0 3.68.501 6.369 1.503 8.066 1.022 1.697 2.484 2.545 4.385 2.545.491 0 .92-.061 1.288-.184s.664-.266.889-.429c.287-.205.481-.419.583-.644.102-.246.153-.563.153-.951v-3.005c0-.941-.081-1.636-.245-2.086-.143-.47-.44-.787-.889-.95-.45-.164-1.104-.256-1.963-.276v-.614c.429.021.94.041 1.533.062.614 0 1.247.01 1.902.03h1.809c.859 0 1.646-.01 2.361-.03.716-.021 1.299-.041 1.748-.062v.614c-.572.041-.95.204-1.134.49-.164.287-.246 1.002-.246 2.147v6.072h-.613c-.02-.348-.102-.726-.245-1.135-.123-.409-.338-.613-.644-.613-.143 0-.338.041-.583.123-.225.061-.583.235-1.073.521-.757.429-1.554.797-2.392 1.104-.839.286-1.718.429-2.638.429-3.577 0-6.297-.971-8.157-2.913-1.86-1.942-2.791-4.651-2.791-8.127 0-2.331.471-4.355 1.411-6.072.961-1.717 2.269-3.056 3.925-4.017 1.677-.961 3.599-1.441 5.766-1.441zm-137.348-83.566c-1.083 4.737-6.479 25.18-6.479 25.18-.273-.245-.535-.487-.839-.719-3.06-2.273-7.469-3.076-12.786-3.076-3.979 0-7.596.617-10.872 1.852-3.281 1.244-6.243 3.099-8.879 5.575-2.612 2.548-4.629 5.451-6.063 8.729-1.44 3.276-2.153 6.672-2.153 10.199 0 6.159 1.928 11.055 5.773 14.687 3.841 3.636 9.049 5.448 15.592 5.448 8.498 0 16.31-4.744 21.711-11.135l-1.323-.988c-2.969 3.587-11.482 10.221-17.594 10.221-4.099 0-8.411-1.791-8.216-6.309.237-5.492 5.857-25.732 7.521-29.143 2.637-5.344 6.633-7.664 11.885-6.787 5.722.945 7.748 5.263 7.85 11.364h14.405l10.44-38.905c-6.419 2.78-13.099 3.752-19.973 3.807z" fill="#272F3F"/><path d="M161.348 10.93c3.496-2.408 7.339-3.612 11.528-3.612 5.013 0 9.5 1.617 13.459 4.849 3.958 3.233 6.662 7.884 8.114 13.953h1.93v-23.256h-1.93c-.232 1.683-.734 2.912-1.509 3.687-.776.776-1.691 1.163-2.745 1.163-.826 0-2.756-.593-5.79-1.781-5.245-2.044-10.226-3.068-14.942-3.068-6.4 0-12.444 1.584-18.135 4.751-.897.5-1.76 1.036-2.596 1.604l-12.297 45.516c.27.543.541 1.083.841 1.616 3.019 5.379 7.307 9.5 12.865 12.371 5.558 2.869 11.915 4.304 19.074 4.304 5.442 0 10.201-.883 14.274-2.647 4.074-1.764 7.992-4.609 11.752-8.535v-5.789c-3.893 4.519-7.594 7.703-11.108 9.549-3.513 1.848-7.381 2.771-11.602 2.771-5.147 0-9.336-1.261-12.568-3.785-3.234-2.523-5.608-6.249-7.126-11.183-1.517-4.931-2.276-10.397-2.276-16.401 0-6.103 1.039-11.644 3.118-16.625 1.616-3.892 4.172-7.041 7.669-9.451z" fill="#7BBBC7"/></svg>