<svg viewBox="0 0 586 89" xmlns="http://www.w3.org/2000/svg">
<path d="M103.521 61.0283L102.843 52.0176C101.781 43.4843 97.7448 38.3283 83.5968 38.023V37.747C98.8875 35.5123 103.997 28.3803 103.997 20.1376C103.997 11.4243 97.2581 3.76031 77.0488 3.76031H74.8541L74.3981 5.46564C84.3075 6.03364 87.4395 11.7363 87.4395 21.203C87.4395 32.8336 84.8461 37.3563 73.5781 37.3563H65.8848L65.4741 38.9056H72.1381C82.8208 38.9056 85.4195 41.555 86.2888 51.4323L86.9555 59.567C87.6381 67.895 89.6488 71.6816 103.138 71.6816C106.209 71.6816 109.578 71.5856 113.433 71.1016V69.8456C105.723 69.555 104.485 68.3856 103.521 61.0283Z" fill="#4B674E"/>
<path d="M48.0936 3.80698C47.0109 8.54432 41.6149 28.987 41.6149 28.987C41.3416 28.7417 41.0803 28.5003 40.7763 28.2683C37.7163 25.995 33.3069 25.1923 27.9896 25.1923C24.011 25.1923 20.3936 25.8096 17.1176 27.0443C13.8363 28.2883 10.8749 30.143 8.23895 32.619C5.62695 35.167 3.60962 38.0696 2.17628 41.3483C0.736285 44.6243 0.0229492 48.0203 0.0229492 51.547C0.0229492 57.7056 1.95095 62.6016 5.79628 66.2336C9.63762 69.8696 14.8456 71.6816 21.3883 71.6816C29.8856 71.6816 37.6976 66.9376 43.099 60.547L41.7763 59.559C38.807 63.1456 30.2936 69.7803 24.1816 69.7803C20.083 69.7803 15.7709 67.9896 15.9656 63.471C16.2029 57.979 21.823 37.739 23.4869 34.3283C26.1243 28.9843 30.1203 26.6643 35.3723 27.5416C41.0936 28.487 43.1203 32.8043 43.2216 38.9056H57.6269L68.0669 0.000314535C61.6483 2.78031 54.9683 3.75231 48.0936 3.80698Z" fill="#272F3F"/>
<path d="M145.62 36.6C145.487 38.0667 145.387 39.4833 145.32 40.85C145.287 42.2167 145.27 43.2667 145.27 44C145.27 44.6667 145.287 45.3 145.32 45.9C145.353 46.5 145.387 47 145.42 47.4H144.27C143.937 44.9667 143.42 43.05 142.72 41.65C142.02 40.2167 141.103 39.2167 139.97 38.65C138.87 38.05 137.57 37.75 136.07 37.75H134.02C133.02 37.75 132.27 37.8333 131.77 38C131.303 38.1667 130.987 38.5 130.82 39C130.653 39.4667 130.57 40.2333 130.57 41.3V67.3C130.57 68.3333 130.653 69.1 130.82 69.6C130.987 70.1 131.303 70.4333 131.77 70.6C132.27 70.7667 133.02 70.85 134.02 70.85H136.47C137.97 70.85 139.287 70.5333 140.42 69.9C141.587 69.2333 142.57 68.1167 143.37 66.55C144.203 64.9833 144.837 62.8667 145.27 60.2H146.42C146.32 61.2667 146.27 62.6667 146.27 64.4C146.27 65.1667 146.287 66.25 146.32 67.65C146.353 69.05 146.453 70.5 146.62 72C144.92 71.9333 143.003 71.9 140.87 71.9C138.737 71.8667 136.837 71.85 135.17 71.85C134.037 71.85 132.537 71.85 130.67 71.85C128.803 71.85 126.82 71.8667 124.72 71.9C122.62 71.9 120.67 71.9333 118.87 72V71C119.937 70.9333 120.737 70.8 121.27 70.6C121.803 70.4 122.153 70 122.32 69.4C122.52 68.8 122.62 67.9 122.62 66.7V41.9C122.62 40.6667 122.52 39.7667 122.32 39.2C122.153 38.6 121.787 38.2 121.22 38C120.687 37.7667 119.903 37.6333 118.87 37.6V36.6C120.67 36.6333 122.62 36.6667 124.72 36.7C126.82 36.7333 128.803 36.75 130.67 36.75C132.537 36.75 134.037 36.75 135.17 36.75C136.703 36.75 138.437 36.75 140.37 36.75C142.337 36.7167 144.087 36.6667 145.62 36.6ZM137.82 53.7C137.82 53.7 137.82 53.8667 137.82 54.2C137.82 54.5333 137.82 54.7 137.82 54.7H129.07C129.07 54.7 129.07 54.5333 129.07 54.2C129.07 53.8667 129.07 53.7 129.07 53.7H137.82ZM139.27 47.1C139.137 49 139.07 50.45 139.07 51.45C139.103 52.45 139.12 53.3667 139.12 54.2C139.12 55.0333 139.137 55.95 139.17 56.95C139.203 57.95 139.287 59.4 139.42 61.3H138.27C138.103 60.1333 137.787 59.05 137.32 58.05C136.887 57.05 136.253 56.25 135.42 55.65C134.587 55.0167 133.503 54.7 132.17 54.7V53.7C133.503 53.7 134.57 53.3333 135.37 52.6C136.17 51.8667 136.787 51 137.22 50C137.653 48.9667 137.953 48 138.12 47.1H139.27ZM169.759 36.5L181.909 67.8C182.376 69 182.893 69.8333 183.459 70.3C184.059 70.7333 184.593 70.9667 185.059 71V72C184.059 71.9333 182.876 71.9 181.509 71.9C180.176 71.8667 178.826 71.85 177.459 71.85C175.926 71.85 174.476 71.8667 173.109 71.9C171.743 71.9 170.659 71.9333 169.859 72V71C171.559 70.9333 172.626 70.65 173.059 70.15C173.526 69.6167 173.426 68.5 172.759 66.8L164.259 43.55L165.159 42.25L157.559 62.05C156.626 64.5167 156.159 66.3833 156.159 67.65C156.193 68.9167 156.609 69.7833 157.409 70.25C158.209 70.6833 159.276 70.9333 160.609 71V72C159.509 71.9333 158.459 71.9 157.459 71.9C156.459 71.8667 155.443 71.85 154.409 71.85C153.676 71.85 152.976 71.8667 152.309 71.9C151.676 71.9 151.109 71.9333 150.609 72V71C151.309 70.8667 152.026 70.4167 152.759 69.65C153.493 68.8833 154.209 67.5833 154.909 65.75L166.309 36.5C166.843 36.5333 167.409 36.55 168.009 36.55C168.643 36.55 169.226 36.5333 169.759 36.5ZM173.259 57.6V58.6H158.359L158.859 57.6H173.259ZM203.682 36.6V37.6C202.549 37.6333 201.682 37.7667 201.082 38C200.516 38.2 200.132 38.6 199.932 39.2C199.732 39.7667 199.632 40.6667 199.632 41.9V67.3C199.632 68.3333 199.699 69.1 199.832 69.6C199.999 70.1 200.299 70.4333 200.732 70.6C201.199 70.7667 201.882 70.85 202.782 70.85H205.232C206.766 70.85 208.149 70.3833 209.382 69.45C210.649 68.5167 211.699 67.2167 212.532 65.55C213.399 63.85 213.999 61.9 214.332 59.7H215.482C215.382 60.8333 215.332 62.3 215.332 64.1C215.332 64.8667 215.349 65.9833 215.382 67.45C215.416 68.9167 215.516 70.4333 215.682 72C213.982 71.9333 212.066 71.9 209.932 71.9C207.799 71.8667 205.899 71.85 204.232 71.85C203.099 71.85 201.599 71.85 199.732 71.85C197.866 71.85 195.882 71.8667 193.782 71.9C191.682 71.9 189.732 71.9333 187.932 72V71C188.999 70.9333 189.799 70.8 190.332 70.6C190.866 70.4 191.216 70 191.382 69.4C191.582 68.8 191.682 67.9 191.682 66.7V41.9C191.682 40.6667 191.582 39.7667 191.382 39.2C191.216 38.6 190.849 38.2 190.282 38C189.749 37.7667 188.966 37.6333 187.932 37.6V36.6C188.766 36.6333 189.882 36.6667 191.282 36.7C192.716 36.7333 194.232 36.75 195.832 36.75C197.299 36.75 198.732 36.7333 200.132 36.7C201.566 36.6667 202.749 36.6333 203.682 36.6ZM261.235 36.6C261.102 38.0667 261.002 39.4833 260.935 40.85C260.902 42.2167 260.885 43.2667 260.885 44C260.885 44.6667 260.902 45.3 260.935 45.9C260.968 46.5 261.002 47 261.035 47.4H259.885C259.552 44.9667 259.035 43.05 258.335 41.65C257.635 40.2167 256.718 39.2167 255.585 38.65C254.485 38.05 253.185 37.75 251.685 37.75H249.635C248.635 37.75 247.885 37.8333 247.385 38C246.918 38.1667 246.602 38.5 246.435 39C246.268 39.4667 246.185 40.2333 246.185 41.3V67.3C246.185 68.3333 246.268 69.1 246.435 69.6C246.602 70.1 246.918 70.4333 247.385 70.6C247.885 70.7667 248.635 70.85 249.635 70.85H252.085C253.585 70.85 254.902 70.5333 256.035 69.9C257.202 69.2333 258.185 68.1167 258.985 66.55C259.818 64.9833 260.452 62.8667 260.885 60.2H262.035C261.935 61.2667 261.885 62.6667 261.885 64.4C261.885 65.1667 261.902 66.25 261.935 67.65C261.968 69.05 262.068 70.5 262.235 72C260.535 71.9333 258.618 71.9 256.485 71.9C254.352 71.8667 252.452 71.85 250.785 71.85C249.652 71.85 248.152 71.85 246.285 71.85C244.418 71.85 242.435 71.8667 240.335 71.9C238.235 71.9 236.285 71.9333 234.485 72V71C235.552 70.9333 236.352 70.8 236.885 70.6C237.418 70.4 237.768 70 237.935 69.4C238.135 68.8 238.235 67.9 238.235 66.7V41.9C238.235 40.6667 238.135 39.7667 237.935 39.2C237.768 38.6 237.402 38.2 236.835 38C236.302 37.7667 235.518 37.6333 234.485 37.6V36.6C236.285 36.6333 238.235 36.6667 240.335 36.7C242.435 36.7333 244.418 36.75 246.285 36.75C248.152 36.75 249.652 36.75 250.785 36.75C252.318 36.75 254.052 36.75 255.985 36.75C257.952 36.7167 259.702 36.6667 261.235 36.6ZM253.435 53.7C253.435 53.7 253.435 53.8667 253.435 54.2C253.435 54.5333 253.435 54.7 253.435 54.7H244.685C244.685 54.7 244.685 54.5333 244.685 54.2C244.685 53.8667 244.685 53.7 244.685 53.7H253.435ZM254.885 47.1C254.752 49 254.685 50.45 254.685 51.45C254.718 52.45 254.735 53.3667 254.735 54.2C254.735 55.0333 254.752 55.95 254.785 56.95C254.818 57.95 254.902 59.4 255.035 61.3H253.885C253.718 60.1333 253.402 59.05 252.935 58.05C252.502 57.05 251.868 56.25 251.035 55.65C250.202 55.0167 249.118 54.7 247.785 54.7V53.7C249.118 53.7 250.185 53.3333 250.985 52.6C251.785 51.8667 252.402 51 252.835 50C253.268 48.9667 253.568 48 253.735 47.1H254.885ZM281.175 35.95C283.141 35.95 284.658 36.1667 285.725 36.6C286.791 37 287.708 37.4333 288.475 37.9C288.875 38.1333 289.191 38.3167 289.425 38.45C289.691 38.55 289.941 38.6 290.175 38.6C290.708 38.6 291.075 37.8667 291.275 36.4H292.425C292.391 37.0333 292.341 37.8 292.275 38.7C292.241 39.5667 292.208 40.7167 292.175 42.15C292.175 43.5833 292.175 45.4667 292.175 47.8H291.025C290.891 46.0667 290.491 44.3833 289.825 42.75C289.158 41.1167 288.208 39.7833 286.975 38.75C285.775 37.6833 284.291 37.15 282.525 37.15C280.925 37.15 279.608 37.6 278.575 38.5C277.541 39.4 277.025 40.65 277.025 42.25C277.025 43.5833 277.358 44.7333 278.025 45.7C278.691 46.6333 279.658 47.55 280.925 48.45C282.225 49.35 283.791 50.4333 285.625 51.7C287.225 52.7333 288.658 53.7667 289.925 54.8C291.191 55.8333 292.208 57 292.975 58.3C293.741 59.6 294.125 61.15 294.125 62.95C294.125 65.15 293.541 66.9667 292.375 68.4C291.241 69.8333 289.741 70.9167 287.875 71.65C286.008 72.35 283.958 72.7 281.725 72.7C279.658 72.7 278.008 72.5 276.775 72.1C275.541 71.7 274.508 71.2833 273.675 70.85C272.941 70.3833 272.375 70.15 271.975 70.15C271.441 70.15 271.075 70.8833 270.875 72.35H269.725C269.791 71.55 269.825 70.6167 269.825 69.55C269.858 68.4833 269.875 67.1 269.875 65.4C269.908 63.6667 269.925 61.4833 269.925 58.85H271.075C271.208 61.05 271.575 63.1167 272.175 65.05C272.808 66.95 273.758 68.4833 275.025 69.65C276.325 70.8167 278.041 71.4 280.175 71.4C281.908 71.4 283.375 70.9333 284.575 70C285.775 69.0667 286.375 67.6667 286.375 65.8C286.375 63.7333 285.675 62.0333 284.275 60.7C282.875 59.3333 281.075 57.9333 278.875 56.5C277.308 55.4667 275.841 54.4333 274.475 53.4C273.108 52.3667 272.008 51.1833 271.175 49.85C270.375 48.5167 269.975 46.9333 269.975 45.1C269.975 43 270.491 41.2833 271.525 39.95C272.591 38.5833 273.975 37.5833 275.675 36.95C277.408 36.2833 279.241 35.95 281.175 35.95ZM330.774 36.6C330.64 38.3 330.54 39.9333 330.474 41.5C330.44 43.0667 330.424 44.2667 330.424 45.1C330.424 45.8333 330.44 46.5333 330.474 47.2C330.507 47.8667 330.54 48.4333 330.574 48.9H329.424C328.89 46.1 328.207 43.8833 327.374 42.25C326.574 40.6167 325.607 39.4667 324.474 38.8C323.34 38.1 322.007 37.75 320.474 37.75H319.324V66.3C319.324 67.6333 319.457 68.6333 319.724 69.3C320.024 69.9667 320.557 70.4167 321.324 70.65C322.09 70.85 323.207 70.9667 324.674 71V72C323.64 71.9667 322.257 71.9333 320.524 71.9C318.824 71.8667 317.04 71.85 315.174 71.85C313.34 71.85 311.607 71.8667 309.974 71.9C308.34 71.9333 307.024 71.9667 306.024 72V71C307.524 70.9667 308.657 70.85 309.424 70.65C310.19 70.4167 310.707 69.9667 310.974 69.3C311.24 68.6333 311.374 67.6333 311.374 66.3V37.75H310.274C308.74 37.75 307.407 38.1 306.274 38.8C305.14 39.4667 304.174 40.6167 303.374 42.25C302.574 43.85 301.874 46.0667 301.274 48.9H300.124C300.19 48.4333 300.224 47.8667 300.224 47.2C300.257 46.5333 300.274 45.8333 300.274 45.1C300.274 44.2667 300.24 43.0667 300.174 41.5C300.14 39.9333 300.057 38.3 299.924 36.6C301.457 36.6333 303.124 36.6667 304.924 36.7C306.757 36.7333 308.59 36.75 310.424 36.75C312.257 36.75 313.907 36.75 315.374 36.75C316.874 36.75 318.524 36.75 320.324 36.75C322.157 36.75 323.99 36.7333 325.824 36.7C327.657 36.6667 329.307 36.6333 330.774 36.6ZM350.091 36.5L362.241 67.8C362.708 69 363.225 69.8333 363.791 70.3C364.391 70.7333 364.925 70.9667 365.391 71V72C364.391 71.9333 363.208 71.9 361.841 71.9C360.508 71.8667 359.158 71.85 357.791 71.85C356.258 71.85 354.808 71.8667 353.441 71.9C352.075 71.9 350.991 71.9333 350.191 72V71C351.891 70.9333 352.958 70.65 353.391 70.15C353.858 69.6167 353.758 68.5 353.091 66.8L344.591 43.55L345.491 42.25L337.891 62.05C336.958 64.5167 336.491 66.3833 336.491 67.65C336.525 68.9167 336.941 69.7833 337.741 70.25C338.541 70.6833 339.608 70.9333 340.941 71V72C339.841 71.9333 338.791 71.9 337.791 71.9C336.791 71.8667 335.775 71.85 334.741 71.85C334.008 71.85 333.308 71.8667 332.641 71.9C332.008 71.9 331.441 71.9333 330.941 72V71C331.641 70.8667 332.358 70.4167 333.091 69.65C333.825 68.8833 334.541 67.5833 335.241 65.75L346.641 36.5C347.175 36.5333 347.741 36.55 348.341 36.55C348.975 36.55 349.558 36.5333 350.091 36.5ZM353.591 57.6V58.6H338.691L339.191 57.6H353.591ZM396.223 36.6C396.09 38.3 395.99 39.9333 395.923 41.5C395.89 43.0667 395.873 44.2667 395.873 45.1C395.873 45.8333 395.89 46.5333 395.923 47.2C395.956 47.8667 395.99 48.4333 396.023 48.9H394.873C394.34 46.1 393.656 43.8833 392.823 42.25C392.023 40.6167 391.056 39.4667 389.923 38.8C388.79 38.1 387.456 37.75 385.923 37.75H384.773V66.3C384.773 67.6333 384.906 68.6333 385.173 69.3C385.473 69.9667 386.006 70.4167 386.773 70.65C387.54 70.85 388.656 70.9667 390.123 71V72C389.09 71.9667 387.706 71.9333 385.973 71.9C384.273 71.8667 382.49 71.85 380.623 71.85C378.79 71.85 377.056 71.8667 375.423 71.9C373.79 71.9333 372.473 71.9667 371.473 72V71C372.973 70.9667 374.106 70.85 374.873 70.65C375.64 70.4167 376.156 69.9667 376.423 69.3C376.69 68.6333 376.823 67.6333 376.823 66.3V37.75H375.723C374.19 37.75 372.856 38.1 371.723 38.8C370.59 39.4667 369.623 40.6167 368.823 42.25C368.023 43.85 367.323 46.0667 366.723 48.9H365.573C365.64 48.4333 365.673 47.8667 365.673 47.2C365.706 46.5333 365.723 45.8333 365.723 45.1C365.723 44.2667 365.69 43.0667 365.623 41.5C365.59 39.9333 365.506 38.3 365.373 36.6C366.906 36.6333 368.573 36.6667 370.373 36.7C372.206 36.7333 374.04 36.75 375.873 36.75C377.706 36.75 379.356 36.75 380.823 36.75C382.323 36.75 383.973 36.75 385.773 36.75C387.606 36.75 389.44 36.7333 391.273 36.7C393.106 36.6667 394.756 36.6333 396.223 36.6ZM428.471 36.6C428.338 38.0667 428.238 39.4833 428.171 40.85C428.138 42.2167 428.121 43.2667 428.121 44C428.121 44.6667 428.138 45.3 428.171 45.9C428.205 46.5 428.238 47 428.271 47.4H427.121C426.788 44.9667 426.271 43.05 425.571 41.65C424.871 40.2167 423.955 39.2167 422.821 38.65C421.721 38.05 420.421 37.75 418.921 37.75H416.871C415.871 37.75 415.121 37.8333 414.621 38C414.155 38.1667 413.838 38.5 413.671 39C413.505 39.4667 413.421 40.2333 413.421 41.3V67.3C413.421 68.3333 413.505 69.1 413.671 69.6C413.838 70.1 414.155 70.4333 414.621 70.6C415.121 70.7667 415.871 70.85 416.871 70.85H419.321C420.821 70.85 422.138 70.5333 423.271 69.9C424.438 69.2333 425.421 68.1167 426.221 66.55C427.055 64.9833 427.688 62.8667 428.121 60.2H429.271C429.171 61.2667 429.121 62.6667 429.121 64.4C429.121 65.1667 429.138 66.25 429.171 67.65C429.205 69.05 429.305 70.5 429.471 72C427.771 71.9333 425.855 71.9 423.721 71.9C421.588 71.8667 419.688 71.85 418.021 71.85C416.888 71.85 415.388 71.85 413.521 71.85C411.655 71.85 409.671 71.8667 407.571 71.9C405.471 71.9 403.521 71.9333 401.721 72V71C402.788 70.9333 403.588 70.8 404.121 70.6C404.655 70.4 405.005 70 405.171 69.4C405.371 68.8 405.471 67.9 405.471 66.7V41.9C405.471 40.6667 405.371 39.7667 405.171 39.2C405.005 38.6 404.638 38.2 404.071 38C403.538 37.7667 402.755 37.6333 401.721 37.6V36.6C403.521 36.6333 405.471 36.6667 407.571 36.7C409.671 36.7333 411.655 36.75 413.521 36.75C415.388 36.75 416.888 36.75 418.021 36.75C419.555 36.75 421.288 36.75 423.221 36.75C425.188 36.7167 426.938 36.6667 428.471 36.6ZM420.671 53.7C420.671 53.7 420.671 53.8667 420.671 54.2C420.671 54.5333 420.671 54.7 420.671 54.7H411.921C411.921 54.7 411.921 54.5333 411.921 54.2C411.921 53.8667 411.921 53.7 411.921 53.7H420.671ZM422.121 47.1C421.988 49 421.921 50.45 421.921 51.45C421.955 52.45 421.971 53.3667 421.971 54.2C421.971 55.0333 421.988 55.95 422.021 56.95C422.055 57.95 422.138 59.4 422.271 61.3H421.121C420.955 60.1333 420.638 59.05 420.171 58.05C419.738 57.05 419.105 56.25 418.271 55.65C417.438 55.0167 416.355 54.7 415.021 54.7V53.7C416.355 53.7 417.421 53.3333 418.221 52.6C419.021 51.8667 419.638 51 420.071 50C420.505 48.9667 420.805 48 420.971 47.1H422.121Z" fill="#4A684E"/>
</svg>
