<svg viewBox="0 0 133 72" xmlns="http://www.w3.org/2000/svg"><path d="M124.541 9.783c.494-1.088 1.153-1.863 1.978-2.325 1.188-.693 2.772-1.039 4.751-1.039h2.177v-1.831h-27.313l-18.208 44.233-18.852-44.233h-3.133c-2.22 7.872-2.389 13.984-4.947 20.681l19.956 46.412h1.187l25.729-61.205v49.725c0 3.365-.183 5.443-.544 6.235-.495 1.123-1.155 1.915-1.979 2.375-1.188.693-2.772 1.04-4.75 1.04h-2.178v1.831h35.032v-1.831h-2.177c-1.88 0-3.381-.321-4.503-.965-1.122-.643-1.865-1.393-2.226-2.251-.363-.857-.544-3.001-.544-6.433v-44.233c0-3.331.181-5.393.544-6.185z" fill="#C36743"/><path d="M48.071 3.806c-1.083 4.737-6.479 25.18-6.479 25.18-.273-.245-.535-.487-.839-.719-3.06-2.273-7.469-3.076-12.787-3.076-3.979 0-7.596.617-10.872 1.852-3.281 1.244-6.243 3.099-8.879 5.575-2.612 2.548-4.629 5.451-6.063 8.729-1.44 3.276-2.153 6.672-2.153 10.199 0 6.159 1.928 11.055 5.773 14.687 3.841 3.636 9.049 5.448 15.592 5.448 8.497 0 16.309-4.744 21.711-11.135l-1.323-.988c-2.969 3.587-11.483 10.221-17.595 10.221-4.099 0-8.411-1.791-8.216-6.309.237-5.492 5.857-25.732 7.521-29.143 2.637-5.344 6.633-7.664 11.885-6.787 5.721.945 7.748 5.263 7.849 11.364h14.405l10.44-38.905c-6.419 2.78-13.099 3.752-19.973 3.807z" fill="#272F3F"/></svg>