<svg viewBox="0 0 344 133" xmlns="http://www.w3.org/2000/svg"><path d="M187.347 3.805c-1.086 4.737-6.479 25.183-6.479 25.183-.273-.248-.535-.489-.839-.719-3.06-2.276-7.469-3.079-12.786-3.079-3.979 0-7.599.617-10.872 1.855-3.284 1.244-6.246 3.096-8.879 5.575-2.612 2.545-4.629 5.448-6.063 8.727-1.44 3.279-2.156 6.672-2.156 10.199 0 6.159 1.931 11.057 5.776 14.689 3.842 3.633 9.05 5.448 15.59 5.448 8.497 0 16.312-4.747 21.713-11.137l-1.323-.985c-2.969 3.587-11.482 10.221-17.597 10.221-4.096 0-8.408-1.791-8.216-6.312.237-5.489 5.86-25.732 7.524-29.14 2.635-5.347 6.631-7.664 11.885-6.787 5.719.945 7.746 5.26 7.847 11.361h14.408l10.44-38.904c-6.421 2.781-13.099 3.751-19.973 3.805zm-176.76 85.505c1.173 0 2.133.178 2.88.533.764.338 1.44.738 2.027 1.2.356.267.622.302.8.107.196-.213.329-.702.4-1.467h.613c-.036.693-.062 1.538-.08 2.533-.018.978-.027 2.284-.027 3.92h-.613c-.089-.818-.204-1.511-.347-2.08-.142-.587-.338-1.102-.587-1.547-.249-.445-.604-.845-1.067-1.2-.444-.445-.96-.773-1.547-.987-.587-.213-1.2-.32-1.84-.32-.96 0-1.778.258-2.453.773-.676.498-1.227 1.182-1.653 2.053-.409.871-.711 1.858-.907 2.96-.196 1.084-.293 2.213-.293 3.387 0 1.191.098 2.337.293 3.44.213 1.084.533 2.053.96 2.906.444.854 1.013 1.529 1.707 2.027.693.498 1.511.747 2.453.747.587 0 1.173-.107 1.76-.32.604-.231 1.12-.56 1.547-.987.693-.533 1.164-1.191 1.413-1.973.249-.8.435-1.858.56-3.174h.613c0 1.689.009 3.058.027 4.107.018 1.031.044 1.902.08 2.613h-.613c-.071-.764-.195-1.244-.373-1.44-.16-.195-.436-.169-.827.08-.658.463-1.36.871-2.107 1.227-.729.338-1.671.507-2.827.507-1.884 0-3.538-.383-4.96-1.147-1.404-.764-2.498-1.867-3.28-3.307-.782-1.44-1.173-3.173-1.173-5.2 0-1.991.4-3.733 1.2-5.227.818-1.493 1.929-2.658 3.333-3.493 1.422-.835 3.058-1.253 4.907-1.253zm17.362.373c3.502 0 6.107.8 7.813 2.4 1.707 1.582 2.56 3.858 2.56 6.827 0 1.938-.418 3.636-1.253 5.093-.836 1.44-2.053 2.56-3.653 3.36-1.582.8-3.484 1.2-5.707 1.2-.427 0-1.04-.009-1.84-.026-.782-.036-1.467-.054-2.053-.054-.782 0-1.556.009-2.32.027-.747 0-1.342.018-1.787.053v-.533c.569-.036.996-.107 1.28-.213.284-.107.471-.32.56-.64.107-.32.16-.8.16-1.44v-13.227c0-.658-.053-1.138-.16-1.44-.089-.32-.284-.533-.587-.64-.284-.125-.702-.196-1.253-.213v-.533c.444.018 1.04.044 1.787.08.764.018 1.52.018 2.267 0 .64-.018 1.36-.035 2.16-.053.818-.018 1.493-.027 2.027-.027zm-.027.48c-.818 0-1.351.151-1.6.453-.249.302-.373.916-.373 1.84v13.333c0 .924.125 1.538.373 1.84.267.302.809.453 1.627.453 1.493 0 2.667-.346 3.52-1.04.871-.711 1.493-1.742 1.867-3.093.373-1.351.56-2.996.56-4.933 0-2.987-.462-5.209-1.387-6.667-.924-1.458-2.453-2.187-4.587-2.187zm19.156-.827c1.049 0 1.858.116 2.427.347.569.213 1.058.444 1.467.693l.507.293c.142.053.276.08.4.08.284 0 .48-.391.587-1.173h.613c-.018.338-.044.747-.08 1.227-.018.462-.035 1.076-.053 1.84v3.013h-.613c-.071-.924-.284-1.822-.64-2.693-.356-.871-.862-1.582-1.52-2.133-.64-.569-1.431-.853-2.373-.853-.853 0-1.555.24-2.107.72-.551.48-.827 1.147-.827 2 0 .711.178 1.325.533 1.84.356.498.871.987 1.547 1.467l2.507 1.733c.853.551 1.618 1.102 2.293 1.653.676.551 1.218 1.173 1.627 1.867.409.693.613 1.52.613 2.48 0 1.173-.311 2.142-.933 2.906-.605.765-1.405 1.343-2.4 1.734-.996.373-2.089.56-3.28.56-1.102 0-1.982-.107-2.64-.32-.658-.214-1.209-.436-1.653-.667-.391-.249-.693-.373-.907-.373-.285 0-.48.391-.587 1.173h-.613c.035-.427.053-.924.053-1.493.018-.569.027-1.307.027-2.214.018-.924.027-2.089.027-3.493h.613c.071 1.173.267 2.276.587 3.307.338 1.013.844 1.831 1.52 2.453.693.622 1.609.933 2.747.933.925 0 1.707-.249 2.347-.746.64-.498.96-1.245.96-2.24 0-1.103-.373-2.009-1.12-2.72-.747-.729-1.707-1.476-2.88-2.24-.836-.551-1.618-1.103-2.347-1.654-.729-.551-1.316-1.182-1.76-1.893-.427-.711-.64-1.556-.64-2.533 0-1.12.276-2.035.827-2.747.569-.729 1.307-1.262 2.213-1.6.924-.356 1.902-.533 2.933-.533zm38.064.347v.533c-.569.018-.996.089-1.28.213-.284.107-.48.32-.587.64-.089.302-.133.782-.133 1.44v13.227c0 .64.044 1.12.133 1.44.107.32.302.533.587.64.284.106.711.177 1.28.213v.533c-.498-.035-1.129-.053-1.893-.053-.747-.018-1.511-.027-2.293-.027-.853 0-1.653.009-2.4.027-.747 0-1.351.018-1.813.053v-.533c.604-.036 1.058-.107 1.36-.213.32-.107.533-.32.64-.64.107-.32.16-.8.16-1.44v-14.427h.187l-6.613 17.28h-.427l-7.2-17.173v12.773c0 .978.053 1.733.16 2.267.107.515.338.889.693 1.12.373.213.951.364 1.733.453v.533c-.338-.035-.782-.053-1.333-.053-.551-.018-1.067-.027-1.547-.027-.409 0-.827.009-1.253.027-.427 0-.782.018-1.067.053v-.533c.569-.089.996-.24 1.28-.453.285-.214.471-.56.56-1.04.107-.498.16-1.174.16-2.027v-12c0-.658-.053-1.138-.16-1.44-.089-.32-.284-.533-.587-.64-.284-.125-.702-.196-1.253-.213v-.533c.285.018.64.036 1.067.053.427.018.844.027 1.253.027.764 0 1.511-.009 2.24-.027.747-.018 1.404-.035 1.973-.053l5.6 13.52-.667.614 5.36-14.054h1.893c.782 0 1.547-.009 2.293-.027.764-.018 1.396-.035 1.893-.053zm10.687-.053l6.48 16.693c.249.64.524 1.085.827 1.334.32.231.604.355.853.373v.533c-.533-.035-1.164-.053-1.893-.053-.711-.018-1.431-.027-2.16-.027-.818 0-1.591.009-2.32.027-.729 0-1.307.018-1.733.053v-.533c.907-.036 1.475-.187 1.707-.453.249-.285.195-.88-.16-1.787l-4.533-12.4.48-.693-4.053 10.56c-.498 1.315-.747 2.311-.747 2.986.018.676.24 1.138.667 1.387.427.231.995.364 1.707.4v.533c-.587-.035-1.147-.053-1.68-.053-.533-.018-1.076-.027-1.627-.027-.391 0-.765.009-1.12.027-.338 0-.64.018-.907.053v-.533c.373-.071.756-.311 1.147-.72s.773-1.102 1.147-2.08l6.08-15.6c.284.018.587.027.907.027.338 0 .649-.009.933-.027zm1.867 11.253v.534h-7.947l.267-.534h7.68zm24.065-11.2v.533c-.569.071-.995.222-1.28.453-.284.213-.48.56-.586 1.04-.089.48-.134 1.156-.134 2.027v14.88c-.213-.018-.435-.027-.666-.027-.214 0-.445.009-.694.027l-11.573-14.667v10.24c0 .978.053 1.733.16 2.267.107.515.338.889.693 1.12.374.213.951.364 1.734.453v.533c-.338-.035-.783-.053-1.334-.053-.551-.018-1.066-.027-1.546-.027-.409 0-.827.009-1.254.027-.426 0-.782.018-1.066.053v-.533c.568-.089.995-.24 1.28-.453.284-.214.471-.56.56-1.04.106-.498.16-1.174.16-2.027v-12c0-.658-.054-1.138-.16-1.44-.089-.32-.285-.533-.587-.64-.285-.125-.702-.196-1.253-.213v-.533c.284.018.64.036 1.066.053.427.018.845.027 1.254.027.426 0 .835-.009 1.226-.027l1.067-.053 10.32 12.72v-8.346c0-.978-.053-1.724-.16-2.24-.107-.533-.347-.915-.72-1.147-.356-.231-.925-.382-1.707-.453v-.533c.338.018.782.036 1.334.053.551.018 1.066.027 1.546.027.427 0 .845-.009 1.254-.027l1.066-.053zm10.24-.053l6.48 16.693c.249.64.524 1.085.826 1.334.32.231.605.355.854.373v.533c-.534-.035-1.165-.053-1.894-.053-.711-.018-1.431-.027-2.16-.027-.817 0-1.591.009-2.32.027-.728 0-1.306.018-1.733.053v-.533c.907-.036 1.476-.187 1.707-.453.249-.285.195-.88-.16-1.787l-4.534-12.4.48-.693-4.053 10.56c-.498 1.315-.747 2.311-.747 2.986.018.676.24 1.138.667 1.387.427.231.996.364 1.707.4v.533c-.587-.035-1.147-.053-1.68-.053-.534-.018-1.076-.027-1.627-.027-.391 0-.764.009-1.12.027-.338 0-.64.018-.907.053v-.533c.374-.071.756-.311 1.147-.72s.773-1.102 1.147-2.08l6.08-15.6c.284.018.586.027.906.027.338 0 .649-.009.934-.027zm1.866 11.253v.534h-7.946l.266-.534h7.68zm16.647-11.573c1.208 0 2.195.169 2.96.507.764.338 1.448.747 2.053 1.227.213.16.391.24.533.24.338 0 .56-.533.667-1.6h.613c-.035.693-.062 1.538-.08 2.533-.018.978-.026 2.284-.026 3.92h-.614c-.124-1.067-.32-1.991-.586-2.773-.249-.8-.72-1.484-1.414-2.053-.426-.409-.96-.729-1.6-.96-.622-.231-1.253-.347-1.893-.347-.978 0-1.813.258-2.507.773-.693.498-1.262 1.182-1.706 2.053-.445.871-.774 1.858-.987 2.96-.213 1.084-.32 2.213-.32 3.387 0 3.2.435 5.537 1.307 7.013.888 1.476 2.16 2.213 3.813 2.213.427 0 .8-.053 1.12-.16.32-.106.578-.231.773-.373.249-.178.418-.364.507-.56.089-.213.133-.489.133-.827v-2.613c0-.818-.071-1.422-.213-1.813-.125-.409-.382-.685-.773-.827-.392-.142-.96-.222-1.707-.24v-.533l1.333.053c.534 0 1.085.009 1.654.027h1.573c.747 0 1.431-.009 2.053-.027.622-.018 1.129-.036 1.52-.053v.533c-.498.036-.826.178-.986.427-.143.249-.214.871-.214 1.866v5.28h-.533c-.018-.302-.089-.631-.213-.986-.107-.356-.294-.534-.56-.534-.125 0-.294.036-.507.107-.196.053-.507.204-.933.453-.658.374-1.352.694-2.08.96-.729.249-1.494.374-2.294.374-3.111 0-5.475-.845-7.093-2.534-1.618-1.689-2.427-4.044-2.427-7.066 0-2.027.409-3.787 1.227-5.28.835-1.493 1.973-2.658 3.413-3.493 1.458-.835 3.129-1.253 5.014-1.253zm23.982.373c-.071.782-.124 1.538-.16 2.267-.018.729-.026 1.289-.026 1.68 0 .356.008.693.026 1.013l.054.8h-.614c-.178-1.298-.453-2.32-.826-3.067-.374-.764-.863-1.298-1.467-1.6-.587-.32-1.28-.48-2.08-.48h-1.093c-.534 0-.934.044-1.2.133-.249.089-.418.267-.507.533-.089.249-.133.658-.133 1.227v13.867c0 .551.044.96.133 1.226.089.267.258.445.507.534.266.089.666.133 1.2.133h1.306c.8 0 1.502-.169 2.107-.507.622-.355 1.147-.951 1.573-1.786.445-.836.782-1.965 1.014-3.387h.613c-.053.569-.08 1.316-.08 2.24 0 .409.009.987.027 1.733.017.747.071 1.52.16 2.32-.907-.035-1.929-.053-3.067-.053-1.138-.018-2.151-.027-3.04-.027h-2.4c-.996 0-2.053.009-3.173.027-1.12 0-2.16.018-3.12.053v-.533c.568-.036.995-.107 1.28-.213.284-.107.471-.32.56-.64.106-.32.16-.8.16-1.44v-13.227c0-.658-.054-1.138-.16-1.44-.089-.32-.285-.533-.587-.64-.285-.125-.702-.196-1.253-.213v-.533c.96.018 2 .036 3.12.053 1.12.018 2.177.027 3.173.027h5.173c1.049-.018 1.982-.044 2.8-.08zm-4.16 9.12v.534h-4.666v-.534h4.666zm.774-3.52c-.072 1.013-.107 1.787-.107 2.32.018.533.027 1.022.027 1.467 0 .444.008.933.026 1.467.018.533.062 1.306.134 2.32h-.614c-.089-.623-.258-1.2-.506-1.734-.232-.533-.569-.96-1.014-1.28-.444-.338-1.022-.507-1.733-.507v-.533c.711 0 1.28-.195 1.707-.587.426-.391.755-.853.986-1.387.231-.551.391-1.067.48-1.547h.614zm28.954-5.6v.533c-.569.018-.996.089-1.28.213-.284.107-.48.32-.587.64-.089.302-.133.782-.133 1.44v13.227c0 .64.044 1.12.133 1.44.107.32.303.533.587.64.284.106.711.177 1.28.213v.533c-.498-.035-1.129-.053-1.893-.053-.747-.018-1.511-.027-2.294-.027-.853 0-1.653.009-2.4.027-.746 0-1.351.018-1.813.053v-.533c.604-.036 1.058-.107 1.36-.213.32-.107.533-.32.64-.64.107-.32.16-.8.16-1.44v-14.427h.187l-6.614 17.28h-.426l-7.2-17.173v12.773c0 .978.053 1.733.16 2.267.106.515.337.889.693 1.12.373.213.951.364 1.733.453v.533c-.337-.035-.782-.053-1.333-.053-.551-.018-1.067-.027-1.547-.027-.409 0-.826.009-1.253.027-.427 0-.782.018-1.067.053v-.533c.569-.089.996-.24 1.28-.453.285-.214.471-.56.56-1.04.107-.498.16-1.174.16-2.027v-12c0-.658-.053-1.138-.16-1.44-.089-.32-.284-.533-.586-.64-.285-.125-.703-.196-1.254-.213v-.533c.285.018.64.036 1.067.053.427.018.844.027 1.253.027.765 0 1.511-.009 2.24-.027.747-.018 1.405-.035 1.974-.053l5.6 13.52-.667.614 5.36-14.054h1.893c.783 0 1.547-.009 2.294-.027.764-.018 1.395-.035 1.893-.053zm16.047 0c-.071.782-.125 1.538-.16 2.267-.018.729-.027 1.289-.027 1.68 0 .356.009.693.027 1.013l.053.8h-.613c-.178-1.298-.454-2.32-.827-3.067-.373-.764-.862-1.298-1.467-1.6-.586-.32-1.28-.48-2.08-.48h-1.093c-.533 0-.933.044-1.2.133-.249.089-.418.267-.507.533-.088.249-.133.658-.133 1.227v13.867c0 .551.045.96.133 1.226.089.267.258.445.507.534.267.089.667.133 1.2.133h1.307c.8 0 1.502-.169 2.106-.507.623-.355 1.147-.951 1.574-1.786.444-.836.782-1.965 1.013-3.387h.613c-.053.569-.08 1.316-.08 2.24 0 .409.009.987.027 1.733.018.747.071 1.52.16 2.32-.907-.035-1.929-.053-3.067-.053-1.137-.018-2.151-.027-3.04-.027h-2.4c-.995 0-2.053.009-3.173.027-1.12 0-2.16.018-3.12.053v-.533c.569-.036.996-.107 1.28-.213.285-.107.471-.32.56-.64.107-.32.16-.8.16-1.44v-13.227c0-.658-.053-1.138-.16-1.44-.089-.32-.284-.533-.587-.64-.284-.125-.702-.196-1.253-.213v-.533c.96.018 2 .036 3.12.053 1.12.018 2.178.027 3.173.027h5.174c1.049-.018 1.982-.044 2.8-.08zm-4.16 9.12v.534h-4.667v-.534h4.667zm.773-3.52c-.071 1.013-.107 1.787-.107 2.32.018.533.027 1.022.027 1.467 0 .444.009.933.027 1.467.018.533.062 1.306.133 2.32h-.613c-.089-.623-.258-1.2-.507-1.734-.231-.533-.569-.96-1.013-1.28-.445-.338-1.022-.507-1.734-.507v-.533c.712 0 1.28-.195 1.707-.587.427-.391.756-.853.987-1.387.231-.551.391-1.067.48-1.547h.613zm23.595-5.6v.533c-.569.071-.996.222-1.28.453-.285.213-.48.56-.587 1.04-.089.48-.133 1.156-.133 2.027v14.88c-.214-.018-.436-.027-.667-.027-.213 0-.445.009-.693.027l-11.574-14.667v10.24c0 .978.054 1.733.16 2.267.107.515.338.889.694 1.12.373.213.951.364 1.733.453v.533c-.338-.035-.782-.053-1.333-.053-.552-.018-1.067-.027-1.547-.027-.409 0-.827.009-1.253.027-.427 0-.783.018-1.067.053v-.533c.569-.089.995-.24 1.28-.453.284-.214.471-.56.56-1.04.107-.498.16-1.174.16-2.027v-12c0-.658-.053-1.138-.16-1.44-.089-.32-.285-.533-.587-.64-.284-.125-.702-.196-1.253-.213v-.533c.284.018.64.036 1.067.053.426.018.844.027 1.253.027.427 0 .835-.009 1.227-.027l1.066-.053 10.32 12.72v-8.346c0-.978-.053-1.724-.16-2.24-.106-.533-.346-.915-.72-1.147-.355-.231-.924-.382-1.706-.453v-.533c.337.018.782.036 1.333.053.551.018 1.067.027 1.547.027.426 0 .844-.009 1.253-.027l1.067-.053zm17.884 0c-.071.907-.124 1.778-.16 2.613-.017.836-.026 1.476-.026 1.92 0 .391.009.764.026 1.12l.054.907h-.614c-.284-1.493-.649-2.675-1.093-3.547-.427-.871-.942-1.484-1.547-1.84-.604-.373-1.315-.56-2.133-.56h-.613v15.226c0 .711.071 1.245.213 1.6.16.356.444.596.853.72.409.107 1.005.169 1.787.187v.533c-.551-.017-1.289-.035-2.213-.053-.907-.018-1.858-.027-2.854-.027-.977 0-1.902.009-2.773.027-.871.018-1.573.036-2.107.053v-.533c.8-.018 1.405-.08 1.814-.187.409-.124.684-.364.826-.72.143-.355.214-.889.214-1.6v-15.226h-.587c-.818 0-1.529.187-2.133.56-.605.356-1.12.969-1.547 1.84-.427.853-.8 2.036-1.12 3.547h-.613c.035-.249.053-.551.053-.907.018-.356.027-.729.027-1.12 0-.444-.018-1.084-.054-1.92-.017-.835-.062-1.707-.133-2.613.818.018 1.707.036 2.667.053.977.018 1.955.027 2.933.027h5.28c.978 0 1.956-.009 2.933-.027.978-.018 1.858-.035 2.64-.053zm17.092-.373c1.209 0 2.195.169 2.96.507.764.338 1.449.747 2.053 1.227.213.16.391.24.533.24.338 0 .56-.533.667-1.6h.613c-.035.693-.062 1.538-.08 2.533-.017.978-.026 2.284-.026 3.92h-.614c-.124-1.067-.32-1.991-.586-2.773-.249-.8-.72-1.484-1.414-2.053-.426-.409-.96-.729-1.6-.96-.622-.231-1.253-.347-1.893-.347-.978 0-1.813.258-2.507.773-.693.498-1.262 1.182-1.706 2.053-.445.871-.774 1.858-.987 2.96-.213 1.084-.32 2.213-.32 3.387 0 3.2.436 5.537 1.307 7.013.889 1.476 2.16 2.213 3.813 2.213.427 0 .8-.053 1.12-.16.32-.106.578-.231.773-.373.249-.178.418-.364.507-.56.089-.213.133-.489.133-.827v-2.613c0-.818-.071-1.422-.213-1.813-.124-.409-.382-.685-.773-.827-.391-.142-.96-.222-1.707-.24v-.533l1.333.053c.534 0 1.085.009 1.654.027h1.573c.747 0 1.431-.009 2.053-.027.623-.018 1.129-.036 1.52-.053v.533c-.497.036-.826.178-.986.427-.142.249-.214.871-.214 1.866v5.28h-.533c-.018-.302-.089-.631-.213-.986-.107-.356-.294-.534-.56-.534-.125 0-.294.036-.507.107-.195.053-.507.204-.933.453-.658.374-1.351.694-2.08.96-.729.249-1.494.374-2.294.374-3.111 0-5.475-.845-7.093-2.534-1.618-1.689-2.427-4.044-2.427-7.066 0-2.027.409-3.787 1.227-5.28.836-1.493 1.973-2.658 3.413-3.493 1.458-.835 3.129-1.253 5.014-1.253zm32.649.373v.533c-.569.018-.995.089-1.28.213-.284.107-.48.32-.587.64-.088.302-.133.782-.133 1.44v13.227c0 .64.045 1.12.133 1.44.107.32.303.533.587.64.285.106.711.177 1.28.213v.533c-.498-.035-1.129-.053-1.893-.053-.747-.018-1.511-.027-2.294-.027-.853 0-1.653.009-2.4.027-.746 0-1.351.018-1.813.053v-.533c.605-.036 1.058-.107 1.36-.213.32-.107.533-.32.64-.64.107-.32.16-.8.16-1.44v-14.427h.187l-6.614 17.28h-.426l-7.2-17.173v12.773c0 .978.053 1.733.16 2.267.106.515.338.889.693 1.12.373.213.951.364 1.733.453v.533c-.337-.035-.782-.053-1.333-.053-.551-.018-1.067-.027-1.547-.027-.408 0-.826.009-1.253.027-.427 0-.782.018-1.067.053v-.533c.569-.089.996-.24 1.28-.453.285-.214.472-.56.56-1.04.107-.498.16-1.174.16-2.027v-12c0-.658-.053-1.138-.16-1.44-.088-.32-.284-.533-.586-.64-.285-.125-.702-.196-1.254-.213v-.533c.285.018.64.036 1.067.053.427.018.845.027 1.253.027.765 0 1.512-.009 2.24-.027.747-.018 1.405-.035 1.974-.053l5.6 13.52-.667.614 5.36-14.054h1.893c.783 0 1.547-.009 2.294-.027.764-.018 1.395-.035 1.893-.053zm1.78 0c.445.018 1.04.036 1.787.053.764.018 1.52.027 2.267.027.853 0 1.68-.009 2.48-.027.8-.018 1.369-.027 1.706-.027 2.205 0 3.849.391 4.934 1.173 1.102.782 1.653 1.787 1.653 3.013 0 .622-.187 1.253-.56 1.893-.373.64-.951 1.209-1.733 1.707-.783.498-1.796.862-3.04 1.093v.053c1.671.124 2.995.427 3.973.907.978.48 1.68 1.058 2.107 1.733.426.676.64 1.378.64 2.107 0 1.671-.658 2.951-1.974 3.84-1.297.889-3.093 1.333-5.386 1.333-.427 0-1.049-.009-1.867-.026-.8-.036-1.76-.054-2.88-.054-.782 0-1.556.009-2.32.027-.747 0-1.342.018-1.787.053v-.533c.569-.036.996-.107 1.28-.213.285-.107.471-.32.56-.64.107-.32.16-.8.16-1.44v-13.227c0-.658-.053-1.138-.16-1.44-.089-.32-.284-.533-.586-.64-.285-.125-.703-.196-1.254-.213v-.533zm7.894.533c-.694 0-1.147.151-1.36.453-.196.302-.294.915-.294 1.84v13.227c0 .924.116 1.529.347 1.813.231.267.729.4 1.493.4 1.28 0 2.214-.4 2.8-1.2.605-.818.907-1.973.907-3.467 0-1.369-.347-2.426-1.04-3.173-.676-.747-1.804-1.12-3.387-1.12h-2.266v-.453h2.293c.836 0 1.476-.196 1.92-.587.444-.409.756-.942.933-1.6.178-.676.267-1.396.267-2.16 0-1.316-.204-2.302-.613-2.96-.409-.676-1.076-1.013-2-1.013zm21.252 18.346v-.533c.568-.036.995-.107 1.28-.213.284-.107.471-.32.56-.64.106-.32.16-.8.16-1.44v-13.227c0-.658-.054-1.138-.16-1.44-.089-.32-.285-.533-.587-.64-.285-.125-.702-.196-1.253-.213v-.533c.48.018 1.102.036 1.866.053.782.018 1.556.027 2.32.027.818 0 1.582-.009 2.294-.027.728-.018 1.315-.035 1.76-.053v.533c-.569.018-1.005.089-1.307.213-.285.107-.471.32-.56.64-.089.302-.133.782-.133 1.44v13.227c0 .64.044 1.12.133 1.44.107.32.302.533.587.64.284.106.711.177 1.28.213v.533c-.445-.035-1.032-.053-1.76-.053-.712-.018-1.476-.027-2.294-.027-.764 0-1.538.009-2.32.027-.764 0-1.386.018-1.866.053zm-11.307 0v-.533c.569-.036.995-.107 1.28-.213.284-.107.471-.32.56-.64.107-.32.16-.8.16-1.44v-13.227c0-.658-.053-1.138-.16-1.44-.089-.32-.285-.533-.587-.64-.284-.125-.702-.196-1.253-.213v-.533c.462.018 1.058.036 1.787.053.746.018 1.555.027 2.426.027.747 0 1.485-.009 2.214-.027.728-.018 1.333-.035 1.813-.053v.533c-.569.018-1.005.089-1.307.213-.284.107-.471.32-.56.64-.089.302-.133.782-.133 1.44v13.227c0 .64.044 1.12.133 1.44.107.32.302.533.587.64.284.106.711.177 1.28.213v.533c-.48-.035-1.085-.053-1.813-.053-.729-.018-1.467-.027-2.214-.027-.871 0-1.68.009-2.426.027-.729 0-1.325.018-1.787.053zm4.507-9.226v-.533h10.533v.533h-10.533z" fill="#272F3F"/><path d="M39.232 132.57h-2.167v-16.431h2.167v16.431zm16.6 0h-2.178l-8.272-12.662v12.662h-2.178v-16.431h2.178l8.294 12.718v-12.718h2.155v16.431zm9.288-2.878l4.694-13.553h2.37l-6.094 16.431h-1.919l-6.083-16.431h2.359l4.672 13.553zm18.564-4.717h-7.121v5.823h8.272v1.772h-10.439v-16.431h10.326v1.783h-8.159v5.282h7.121v1.771zm8.689.271c-1.858-.534-3.212-1.188-4.063-1.963-.843-.783-1.264-1.746-1.264-2.889 0-1.294.515-2.363 1.546-3.205 1.038-.85 2.385-1.275 4.04-1.275 1.129 0 2.133.218 3.013.654.888.436 1.572 1.038 2.054 1.806.489.767.734 1.606.734 2.516h-2.178c0-.993-.316-1.772-.948-2.336-.632-.572-1.523-.857-2.674-.857-1.068 0-1.903.237-2.505.711-.594.466-.891 1.117-.891 1.952 0 .669.282 1.237.846 1.704.572.459 1.538.88 2.9 1.264 1.369.383 2.438.809 3.205 1.275.775.459 1.347.997 1.715 1.614.376.617.564 1.343.564 2.178 0 1.331-.519 2.4-1.557 3.205-1.038.797-2.426 1.196-4.164 1.196-1.128 0-2.182-.215-3.16-.643-.978-.437-1.734-1.031-2.268-1.783-.527-.753-.79-1.607-.79-2.562h2.178c0 .993.365 1.779 1.095 2.358.737.572 1.719.858 2.945.858 1.144 0 2.02-.233 2.629-.7.609-.466.914-1.102.914-1.907 0-.805-.282-1.425-.846-1.862-.564-.444-1.588-.88-3.07-1.309zm20.234-7.324h-5.282v14.648h-2.155v-14.648h-5.27v-1.783h12.707v1.783zm12.56 7.324c-1.858-.534-3.213-1.188-4.063-1.963-.842-.783-1.264-1.746-1.264-2.889 0-1.294.516-2.363 1.546-3.205 1.039-.85 2.385-1.275 4.04-1.275 1.129 0 2.133.218 3.013.654.888.436 1.573 1.038 2.054 1.806.489.767.734 1.606.734 2.516h-2.178c0-.993-.316-1.772-.948-2.336-.632-.572-1.524-.857-2.675-.857-1.068 0-1.903.237-2.505.711-.594.466-.891 1.117-.891 1.952 0 .669.282 1.237.846 1.704.572.459 1.539.88 2.9 1.264 1.369.383 2.438.809 3.205 1.275.775.459 1.347.997 1.715 1.614.377.617.565 1.343.565 2.178 0 1.331-.519 2.4-1.558 3.205-1.038.797-2.426 1.196-4.164 1.196-1.128 0-2.182-.215-3.16-.643-.978-.437-1.734-1.031-2.268-1.783-.526-.753-.79-1.607-.79-2.562h2.178c0 .993.365 1.779 1.095 2.358.737.572 1.719.858 2.945.858 1.144 0 2.02-.233 2.63-.7.609-.466.914-1.102.914-1.907 0-.805-.282-1.425-.847-1.862-.564-.444-1.587-.88-3.069-1.309zm20.448-9.107v11.172c-.007 1.55-.496 2.818-1.467 3.803-.963.986-2.272 1.539-3.927 1.659l-.576.023c-1.798 0-3.231-.485-4.299-1.456-1.068-.97-1.61-2.306-1.625-4.006v-11.195h2.144v11.127c0 1.189.327 2.114.982 2.776.654.655 1.587.982 2.798.982 1.227 0 2.163-.327 2.81-.982.655-.654.982-1.576.982-2.764v-11.139h2.178zm5.586 9.999v6.432h-2.166v-16.431h6.06c1.798 0 3.204.459 4.22 1.377 1.023.918 1.535 2.133 1.535 3.645 0 1.595-.5 2.825-1.501 3.69-.993.858-2.419 1.287-4.277 1.287h-3.871zm0-1.772h3.894c1.158 0 2.046-.271 2.663-.813.617-.549.925-1.339.925-2.369 0-.978-.308-1.761-.925-2.348-.617-.586-1.463-.891-2.539-.914h-4.018v6.444zm14.58 1.772v6.432h-2.166v-16.431h6.06c1.798 0 3.205.459 4.22 1.377 1.023.918 1.535 2.133 1.535 3.645 0 1.595-.5 2.825-1.501 3.69-.993.858-2.419 1.287-4.277 1.287h-3.871zm0-1.772h3.894c1.158 0 2.046-.271 2.663-.813.617-.549.925-1.339.925-2.369 0-.978-.308-1.761-.925-2.348-.617-.586-1.463-.891-2.539-.914h-4.018v6.444zm25.053.519c0 1.61-.271 3.017-.813 4.221-.541 1.196-1.309 2.11-2.302 2.742-.993.632-2.151.948-3.475.948-1.294 0-2.442-.316-3.442-.948-1.001-.64-1.78-1.546-2.336-2.72-.55-1.181-.832-2.546-.847-4.096v-1.185c0-1.58.275-2.976.824-4.187.549-1.211 1.324-2.136 2.325-2.776 1.008-.647 2.159-.97 3.453-.97 1.317 0 2.475.319 3.476.959 1.008.632 1.783 1.553 2.324 2.765.542 1.203.813 2.606.813 4.209v1.038zm-2.155-1.061c0-1.948-.392-3.442-1.174-4.48-.782-1.046-1.877-1.568-3.284-1.568-1.369 0-2.449.522-3.239 1.568-.782 1.038-1.185 2.483-1.207 4.334v1.207c0 1.888.395 3.374 1.185 4.458.797 1.075 1.892 1.613 3.284 1.613 1.399 0 2.482-.507 3.25-1.523.767-1.023 1.162-2.487 1.185-4.39v-1.219zm11.431 2.099h-3.859v6.647h-2.178v-16.431h5.439c1.851 0 3.273.422 4.266 1.264 1 .843 1.501 2.069 1.501 3.679 0 1.023-.279 1.915-.835 2.675-.55.759-1.317 1.327-2.302 1.704l3.859 6.974v.135h-2.325l-3.566-6.647zm-3.859-1.771h3.329c1.076 0 1.93-.279 2.562-.836.639-.556.959-1.301.959-2.234 0-1.016-.305-1.794-.914-2.336-.602-.542-1.475-.816-2.618-.824h-3.318v6.23zm22.525-6.23h-5.282v14.648h-2.155v-14.648h-5.27v-1.783h12.707v1.783zm19.805 9.434c-.203 1.738-.847 3.081-1.93 4.029-1.076.941-2.509 1.411-4.3 1.411-1.941 0-3.498-.696-4.672-2.088-1.166-1.392-1.749-3.254-1.749-5.586v-1.58c0-1.527.271-2.87.813-4.029.549-1.158 1.324-2.046 2.324-2.663 1.001-.624 2.16-.936 3.476-.936 1.746 0 3.145.489 4.198 1.467 1.053.97 1.667 2.317 1.84 4.04h-2.178c-.188-1.309-.598-2.257-1.23-2.844-.625-.587-1.501-.88-2.63-.88-1.384 0-2.471.511-3.261 1.534-.783 1.023-1.174 2.479-1.174 4.368v1.591c0 1.783.373 3.201 1.117 4.254.745 1.053 1.787 1.58 3.126 1.58 1.204 0 2.126-.271 2.765-.812.647-.55 1.076-1.501 1.287-2.856h2.178zm8.994-1.433h-3.86v6.647h-2.178v-16.431h5.44c1.85 0 3.272.422 4.265 1.264 1.001.843 1.501 2.069 1.501 3.679 0 1.023-.278 1.915-.835 2.675-.549.759-1.316 1.327-2.302 1.704l3.86 6.974v.135h-2.325l-3.566-6.647zm-3.86-1.771h3.329c1.076 0 1.93-.279 2.562-.836.64-.556.959-1.301.959-2.234 0-1.016-.304-1.794-.914-2.336-.602-.542-1.474-.816-2.618-.824h-3.318v6.23zm21.363.823h-7.121v5.823h8.272v1.772h-10.439v-16.431h10.326v1.783h-8.159v5.282h7.121v1.771zm12.921 3.307h-6.884l-1.546 4.288h-2.234l6.274-16.431h1.896l6.286 16.431h-2.223l-1.569-4.288zm-6.229-1.783h5.586l-2.799-7.685-2.787 7.685zm22.118-8.577h-5.281v14.648h-2.156v-14.648h-5.27v-1.783h12.707v1.783zm11.725 7.053h-7.12v5.823h8.271v1.772h-10.438v-16.431h10.326v1.783h-8.159v5.282h7.12v1.771z" fill="#2A3741"/></svg>