<svg viewBox="0 0 261 112" xmlns="http://www.w3.org/2000/svg"><path d="M131.071 3.807c-1.083 4.737-6.479 25.18-6.479 25.18-.273-.245-.534-.487-.838-.719-3.06-2.273-7.47-3.076-12.787-3.076-3.979 0-7.596.617-10.872 1.852-3.281 1.244-6.243 3.099-8.879 5.575-2.612 2.548-4.629 5.451-6.061 8.729-1.441 3.276-2.155 6.672-2.155 10.199 0 6.159 1.928 11.055 5.773 14.687 3.841 3.636 9.049 5.448 15.592 5.448 8.497 0 16.309-4.744 21.71-11.135l-1.322-.988c-2.97 3.587-11.483 10.221-17.595 10.221-4.099 0-8.411-1.791-8.216-6.309.237-5.492 5.857-25.732 7.521-29.143 2.638-5.344 6.634-7.664 11.886-6.787 5.721.945 7.748 5.263 7.849 11.364h14.405l10.44-38.905c-6.418 2.78-13.098 3.752-19.973 3.807z" fill="#272F3F"/><path d="M170.133 9.128c.492-1.133 1.164-1.935 2.019-2.401 1.181-.7 2.739-1.052 4.676-1.052h2.217v-1.852h-21.16l-4.342 16.279v39.972c0 3.404-.18 5.505-.543 6.305-.457 1.135-1.115 1.935-1.968 2.403-1.18.701-2.74 1.049-4.677 1.049h-2.214v1.852h34.904v-1.852h-2.217c-1.869 0-3.356-.325-4.455-.976-1.1-.651-1.836-1.409-2.213-2.276-.379-.867-.568-3.036-.568-6.505v-44.639c0-3.403.18-5.504.541-6.307z" fill="#406196"/><path d="M11.645 90.025c1.291 0 2.347.196 3.168.587.841.372 1.584.812 2.229 1.32.391.293.684.332.88.117.215-.235.362-.772.44-1.613h.675c-.039.763-.068 1.692-.088 2.787-.02 1.075-.029 2.513-.029 4.312h-.675c-.098-.9-.225-1.662-.381-2.288-.156-.645-.372-1.212-.645-1.701-.274-.489-.665-.929-1.173-1.32-.489-.489-1.056-.851-1.701-1.085-.645-.235-1.32-.352-2.024-.352-1.056 0-1.956.284-2.699.851-.743.547-1.349 1.3-1.819 2.259-.45.958-.782 2.044-.997 3.256-.215 1.193-.323 2.435-.323 3.726 0 1.31.108 2.571.323 3.784.235 1.193.587 2.258 1.056 3.197.489.939 1.115 1.682 1.877 2.229.763.548 1.662.822 2.699.822.645 0 1.291-.118 1.936-.352.665-.254 1.232-.616 1.701-1.086.763-.586 1.281-1.31 1.555-2.17.274-.88.479-2.044.616-3.491h.675c0 1.858.01 3.364.029 4.517.02 1.135.049 2.093.088 2.875h-.675c-.078-.841-.215-1.369-.411-1.584-.176-.215-.479-.186-.909.088-.724.509-1.496.958-2.317 1.349-.802.372-1.838.558-3.109.558-2.073 0-3.892-.421-5.456-1.262-1.545-.84-2.748-2.053-3.608-3.637-.86-1.584-1.291-3.491-1.291-5.72 0-2.19.44-4.107 1.32-5.749.9-1.643 2.122-2.924 3.667-3.843 1.564-.919 3.364-1.379 5.397-1.379zm19.098.411c3.852 0 6.717.88 8.595 2.64 1.877 1.74 2.816 4.244 2.816 7.509 0 2.132-.46 4-1.379 5.603-.919 1.584-2.259 2.816-4.019 3.696-1.74.88-3.833 1.32-6.277 1.32-.469 0-1.144-.01-2.024-.029-.86-.039-1.613-.059-2.259-.059-.86 0-1.711.01-2.552.029-.821 0-1.476.02-1.965.059v-.587c.626-.039 1.095-.117 1.408-.234.313-.118.518-.352.616-.704.117-.352.176-.88.176-1.584v-14.55c0-.724-.059-1.252-.176-1.584-.098-.352-.313-.587-.645-.704-.313-.137-.773-.215-1.379-.235v-.587c.489.02 1.144.049 1.965.088.841.02 1.672.02 2.493 0 .704-.02 1.496-.039 2.376-.059.899-.02 1.643-.029 2.229-.029zm-.029.528c-.9 0-1.486.166-1.76.499-.274.332-.411 1.007-.411 2.024v14.666c0 1.017.137 1.692.411 2.024.293.333.89.499 1.789.499 1.643 0 2.933-.381 3.872-1.144.958-.782 1.643-1.916 2.053-3.403.411-1.486.616-3.295.616-5.426 0-3.286-.508-5.73-1.525-7.334-1.017-1.603-2.699-2.405-5.045-2.405zm21.072-.909c1.154 0 2.044.127 2.669.381.626.235 1.164.489 1.613.763l.557.323c.156.059.303.088.44.088.313 0 .528-.43.645-1.291h.675c-.02.371-.049.821-.088 1.349-.02.508-.039 1.183-.059 2.024v3.315h-.675c-.078-1.017-.313-2.004-.704-2.963-.391-.958-.949-1.74-1.672-2.347-.704-.626-1.574-.939-2.611-.939-.939 0-1.711.264-2.317.792-.606.528-.909 1.261-.909 2.2 0 .782.196 1.457.587 2.024.391.547.958 1.085 1.701 1.613l2.757 1.907c.939.606 1.779 1.212 2.523 1.818.743.607 1.34 1.291 1.789 2.054.45.762.675 1.672.675 2.728 0 1.29-.342 2.356-1.027 3.197-.665.841-1.545 1.477-2.64 1.907-1.095.41-2.298.616-3.608.616-1.212 0-2.18-.118-2.904-.352-.724-.235-1.33-.479-1.819-.734-.43-.273-.763-.41-.997-.41-.313 0-.528.43-.645 1.29h-.675c.039-.469.059-1.016.059-1.642.02-.626.029-1.438.029-2.435.02-1.017.029-2.298.029-3.843h.675c.078 1.291.293 2.504.645 3.638.371 1.114.929 2.014 1.672 2.698.763.685 1.77 1.027 3.021 1.027 1.017 0 1.877-.274 2.581-.821.704-.548 1.056-1.369 1.056-2.464 0-1.213-.411-2.21-1.232-2.992-.821-.802-1.877-1.623-3.168-2.464-.919-.606-1.78-1.213-2.581-1.819-.802-.606-1.447-1.3-1.936-2.083-.469-.782-.704-1.711-.704-2.787 0-1.232.303-2.239.909-3.021.626-.802 1.437-1.388 2.435-1.76 1.017-.391 2.093-.587 3.227-.587zm25.707.381v.587c-.626.019-1.105.098-1.437.235-.313.117-.518.352-.616.704-.098.332-.147.861-.147 1.584v14.55c0 .704.049 1.232.147 1.584.117.352.332.586.645.704.313.117.782.195 1.408.234v.587c-.528-.039-1.193-.059-1.995-.059-.802-.019-1.613-.029-2.435-.029-.958 0-1.848.01-2.669.029-.802 0-1.457.02-1.965.059v-.587c.626-.039 1.095-.117 1.408-.234.313-.118.518-.352.616-.704.117-.352.176-.88.176-1.584v-14.55c0-.724-.059-1.252-.176-1.584-.098-.352-.313-.587-.645-.704-.313-.137-.773-.215-1.379-.235v-.587c.509.02 1.164.039 1.965.059.821.02 1.711.029 2.669.029.821 0 1.633-.01 2.435-.029.802-.02 1.467-.039 1.995-.059zm21.295 0v.587c-.626.078-1.095.244-1.408.499-.313.235-.528.616-.645 1.144-.098.528-.147 1.271-.147 2.229v16.368c-.235-.02-.479-.03-.733-.03-.235 0-.489.01-.763.03l-12.731-16.134v11.264c0 1.076.059 1.907.176 2.494.117.567.371.978.763 1.232.411.234 1.046.401 1.907.498v.587c-.372-.039-.86-.059-1.467-.059-.606-.019-1.173-.029-1.701-.029-.45 0-.909.01-1.379.029-.469 0-.86.02-1.173.059v-.587c.626-.097 1.095-.264 1.408-.498.313-.235.518-.616.616-1.144.117-.548.176-1.291.176-2.23v-13.2c0-.724-.059-1.252-.176-1.584-.098-.352-.313-.587-.645-.704-.313-.137-.772-.215-1.379-.235v-.587c.313.02.704.039 1.173.059.469.02.929.029 1.379.029.469 0 .919-.01 1.349-.029l1.173-.059 11.352 13.992v-9.181c0-1.076-.059-1.897-.176-2.464-.117-.587-.381-1.007-.792-1.261-.391-.254-1.017-.42-1.877-.499v-.587c.372.02.861.039 1.467.059.606.02 1.173.029 1.701.029.469 0 .929-.01 1.379-.029.469-.02.86-.039 1.173-.059zm20.729 0v.587c-.43.156-.89.499-1.378 1.027-.47.528-.91 1.349-1.32 2.464l-6.19 16.75c-.156-.02-.322-.03-.498-.03h-1.027c-.176 0-.342.01-.499.03l-7.48-18.363c-.274-.704-.577-1.183-.909-1.437-.333-.274-.645-.421-.939-.44v-.587c.587.02 1.271.039 2.054.059.801.02 1.603.029 2.405.029.899 0 1.74-.01 2.523-.029.801-.02 1.447-.039 1.936-.059v.587c-.959.039-1.584.205-1.878.499-.293.274-.234.929.176 1.965l5.339 13.581-.616.733 4.048-10.912c.528-1.467.802-2.62.821-3.461.02-.841-.186-1.447-.616-1.819-.43-.371-1.046-.567-1.848-.587v-.587l1.878.059c.586.02 1.183.029 1.789.029.43 0 .831-.01 1.203-.029l1.026-.059zm16.397 0c-.079.86-.137 1.692-.176 2.493-.02.802-.03 1.418-.03 1.848 0 .391.01.763.03 1.115l.058.88h-.674c-.196-1.428-.499-2.552-.91-3.373-.41-.841-.948-1.428-1.613-1.76-.645-.352-1.408-.528-2.288-.528h-1.203c-.586 0-1.026.049-1.32.147-.273.098-.459.293-.557.587-.098.274-.147.724-.147 1.349v15.254c0 .606.049 1.056.147 1.349.098.293.284.489.557.587.294.098.734.146 1.32.146h1.438c.88 0 1.652-.185 2.317-.557.684-.391 1.261-1.046 1.731-1.965.489-.919.86-2.161 1.114-3.726h.675c-.059.626-.088 1.448-.088 2.464 0 .45.01 1.086.029 1.907.02.821.079 1.672.176 2.552-.997-.039-2.121-.059-3.373-.059-1.252-.019-2.366-.029-3.344-.029h-2.64c-1.095 0-2.259.01-3.491.029-1.232 0-2.376.02-3.432.059v-.587c.626-.039 1.095-.117 1.408-.234.313-.118.519-.352.616-.704.118-.352.176-.88.176-1.584v-14.55c0-.724-.058-1.252-.176-1.584-.097-.352-.313-.587-.645-.704-.313-.137-.772-.215-1.379-.235v-.587c1.056.02 2.2.039 3.432.059 1.232.02 2.396.029 3.491.029h5.691c1.153-.02 2.18-.049 3.08-.088zm-4.576 10.032v.587h-5.134v-.587h5.134zm.85-3.872c-.078 1.115-.117 1.965-.117 2.552.02.587.029 1.125.029 1.613 0 .489.01 1.027.03 1.614.019.586.068 1.437.146 2.552h-.674c-.098-.685-.284-1.32-.558-1.907-.254-.587-.625-1.056-1.114-1.408-.489-.371-1.125-.557-1.907-.557v-.587c.782 0 1.408-.215 1.877-.645.47-.43.831-.939 1.086-1.525.254-.606.43-1.173.528-1.701h.674zm13.957-6.541c1.154 0 2.043.127 2.669.381.626.235 1.164.489 1.613.763l.558.323c.156.059.303.088.44.088.313 0 .528-.43.645-1.291h.675c-.02.371-.049.821-.088 1.349-.02.508-.039 1.183-.059 2.024v3.315h-.675c-.078-1.017-.312-2.004-.704-2.963-.391-.958-.948-1.74-1.672-2.347-.704-.626-1.574-.939-2.61-.939-.939 0-1.711.264-2.318.792-.606.528-.909 1.261-.909 2.2 0 .782.196 1.457.587 2.024.391.547.958 1.085 1.701 1.613l2.757 1.907c.939.606 1.78 1.212 2.523 1.818.743.607 1.34 1.291 1.789 2.054.45.762.675 1.672.675 2.728 0 1.29-.342 2.356-1.027 3.197-.664.841-1.544 1.477-2.64 1.907-1.095.41-2.297.616-3.608.616-1.212 0-2.18-.118-2.904-.352-.723-.235-1.329-.479-1.818-.734-.43-.273-.763-.41-.998-.41-.312 0-.528.43-.645 1.29h-.675c.04-.469.059-1.016.059-1.642.02-.626.029-1.438.029-2.435.02-1.017.03-2.298.03-3.843h.674c.079 1.291.294 2.504.646 3.638.371 1.114.929 2.014 1.672 2.698.762.685 1.77 1.027 3.021 1.027 1.017 0 1.877-.274 2.581-.821.704-.548 1.056-1.369 1.056-2.464 0-1.213-.41-2.21-1.232-2.992-.821-.802-1.877-1.623-3.168-2.464-.919-.606-1.779-1.213-2.581-1.819-.802-.606-1.447-1.3-1.936-2.083-.469-.782-.704-1.711-.704-2.787 0-1.232.303-2.239.909-3.021.626-.802 1.438-1.388 2.435-1.76 1.017-.391 2.093-.587 3.227-.587zm27.631.381c-.078.997-.137 1.956-.176 2.875-.019.919-.029 1.623-.029 2.112 0 .43.01.841.029 1.232l.059.997h-.675c-.313-1.643-.713-2.943-1.202-3.901-.47-.958-1.037-1.633-1.702-2.024-.665-.411-1.447-.616-2.346-.616h-.675v16.749c0 .782.078 1.369.235 1.76.176.391.489.655.938.792.45.117 1.105.186 1.966.205v.587c-.607-.019-1.418-.039-2.435-.059-.997-.019-2.044-.029-3.139-.029-1.075 0-2.092.01-3.05.029-.959.02-1.731.04-2.318.059v-.587c.88-.019 1.545-.088 1.995-.205.45-.137.753-.401.909-.792.157-.391.235-.978.235-1.76v-16.749h-.645c-.9 0-1.682.205-2.347.616-.665.391-1.232 1.066-1.701 2.024-.47.939-.88 2.239-1.232 3.901h-.675c.039-.274.059-.606.059-.997.019-.391.029-.802.029-1.232 0-.489-.02-1.193-.059-2.112-.019-.919-.068-1.877-.146-2.875.899.02 1.877.039 2.933.059 1.076.02 2.151.029 3.227.029h5.808c1.075 0 2.151-.01 3.226-.029 1.076-.02 2.044-.039 2.904-.059zm26.986 0v.587c-.626.019-1.095.098-1.408.235-.313.117-.528.352-.645.704-.098.332-.147.861-.147 1.584v14.55c0 .704.049 1.232.147 1.584.117.352.332.586.645.704.313.117.782.195 1.408.234v.587c-.548-.039-1.242-.059-2.083-.059-.821-.019-1.662-.029-2.522-.029-.939 0-1.819.01-2.64.029-.822 0-1.487.02-1.995.059v-.587c.665-.039 1.164-.117 1.496-.234.352-.118.587-.352.704-.704.117-.352.176-.88.176-1.584v-15.87h.205l-7.274 19.008h-.47l-7.92-18.89v14.05c0 1.076.059 1.907.176 2.494.118.567.372.978.763 1.232.411.234 1.046.401 1.907.498v.587c-.372-.039-.861-.059-1.467-.059-.606-.019-1.173-.029-1.701-.029-.45 0-.91.01-1.379.029-.469 0-.86.02-1.173.059v-.587c.625-.097 1.095-.264 1.408-.498.313-.235.518-.616.616-1.144.117-.548.176-1.291.176-2.23v-13.2c0-.724-.059-1.252-.176-1.584-.098-.352-.313-.587-.646-.704-.313-.137-.772-.215-1.378-.235v-.587c.313.02.704.039 1.173.059.469.02.929.029 1.379.029.841 0 1.662-.01 2.464-.029.821-.02 1.545-.039 2.17-.059l6.16 14.872-.733.675 5.896-15.459h2.083c.86 0 1.701-.01 2.522-.029.841-.02 1.535-.039 2.083-.059zm17.652 0c-.079.86-.137 1.692-.176 2.493-.02.802-.03 1.418-.03 1.848 0 .391.01.763.03 1.115l.058.88h-.674c-.196-1.428-.499-2.552-.91-3.373-.41-.841-.948-1.428-1.613-1.76-.645-.352-1.408-.528-2.288-.528h-1.203c-.586 0-1.026.049-1.32.147-.273.098-.459.293-.557.587-.098.274-.147.724-.147 1.349v15.254c0 .606.049 1.056.147 1.349.098.293.284.489.557.587.294.098.734.146 1.32.146h1.438c.88 0 1.652-.185 2.317-.557.684-.391 1.261-1.046 1.731-1.965.489-.919.86-2.161 1.114-3.726h.675c-.059.626-.088 1.448-.088 2.464 0 .45.01 1.086.029 1.907.02.821.079 1.672.176 2.552-.997-.039-2.121-.059-3.373-.059-1.252-.019-2.366-.029-3.344-.029h-2.64c-1.095 0-2.259.01-3.491.029-1.232 0-2.376.02-3.432.059v-.587c.626-.039 1.095-.117 1.408-.234.313-.118.519-.352.616-.704.118-.352.176-.88.176-1.584v-14.55c0-.724-.058-1.252-.176-1.584-.097-.352-.313-.587-.645-.704-.313-.137-.772-.215-1.379-.235v-.587c1.056.02 2.2.039 3.432.059 1.232.02 2.396.029 3.491.029h5.691c1.153-.02 2.18-.049 3.08-.088zm-4.576 10.032v.587h-5.134v-.587h5.134zm.85-3.872c-.078 1.115-.117 1.965-.117 2.552.02.587.029 1.125.029 1.613 0 .489.01 1.027.03 1.614.019.586.068 1.437.146 2.552h-.674c-.098-.685-.284-1.32-.558-1.907-.254-.587-.625-1.056-1.114-1.408-.489-.371-1.125-.557-1.907-.557v-.587c.782 0 1.408-.215 1.877-.645.47-.43.831-.939 1.086-1.525.254-.606.43-1.173.528-1.701h.674zm25.954-6.16v.587c-.626.078-1.095.244-1.408.499-.313.235-.528.616-.645 1.144-.098.528-.147 1.271-.147 2.229v16.368c-.235-.02-.479-.03-.733-.03-.235 0-.489.01-.763.03l-12.731-16.134v11.264c0 1.076.059 1.907.176 2.494.118.567.372.978.763 1.232.411.234 1.046.401 1.907.498v.587c-.372-.039-.861-.059-1.467-.059-.606-.019-1.173-.029-1.701-.029-.45 0-.91.01-1.379.029-.469 0-.86.02-1.173.059v-.587c.626-.097 1.095-.264 1.408-.498.313-.235.518-.616.616-1.144.117-.548.176-1.291.176-2.23v-13.2c0-.724-.059-1.252-.176-1.584-.098-.352-.313-.587-.646-.704-.312-.137-.772-.215-1.378-.235v-.587c.313.02.704.039 1.173.059.469.02.929.029 1.379.029.469 0 .919-.01 1.349-.029l1.173-.059 11.352 13.992v-9.181c0-1.076-.058-1.897-.176-2.464-.117-.587-.381-1.007-.792-1.261-.391-.254-1.016-.42-1.877-.499v-.587c.372.02.861.039 1.467.059.606.02 1.173.029 1.701.029.469 0 .929-.01 1.379-.029.469-.02.86-.039 1.173-.059zm19.673 0c-.078.997-.137 1.956-.176 2.875-.019.919-.029 1.623-.029 2.112 0 .43.01.841.029 1.232l.059.997h-.675c-.313-1.643-.713-2.943-1.202-3.901-.47-.958-1.037-1.633-1.702-2.024-.665-.411-1.447-.616-2.346-.616h-.675v16.749c0 .782.078 1.369.235 1.76.176.391.489.655.938.792.45.117 1.105.186 1.966.205v.587c-.607-.019-1.418-.039-2.435-.059-.997-.019-2.044-.029-3.139-.029-1.075 0-2.092.01-3.05.029-.959.02-1.731.04-2.318.059v-.587c.88-.019 1.545-.088 1.995-.205.45-.137.753-.401.909-.792.157-.391.235-.978.235-1.76v-16.749h-.645c-.9 0-1.682.205-2.347.616-.665.391-1.232 1.066-1.701 2.024-.47.939-.88 2.239-1.232 3.901h-.675c.039-.274.059-.606.059-.997.019-.391.029-.802.029-1.232 0-.489-.02-1.193-.059-2.112-.019-.919-.068-1.877-.146-2.875.899.02 1.877.039 2.933.059 1.076.02 2.151.029 3.227.029h5.808c1.075 0 2.151-.01 3.226-.029 1.076-.02 2.044-.039 2.904-.059z" fill="#272F3F"/></svg>