<svg viewBox="0 0 611 90" xmlns="http://www.w3.org/2000/svg">
<path d="M48.0707 3.80698C46.988 8.54432 41.592 28.987 41.592 28.987C41.3187 28.7417 41.0573 28.5003 40.7533 28.2683C37.6933 25.995 33.284 25.1923 27.9667 25.1923C23.988 25.1923 20.3707 25.8096 17.0947 27.0443C13.8133 28.2883 10.852 30.143 8.216 32.619C5.604 35.167 3.58667 38.0696 2.15334 41.3483C0.713335 44.6243 0 48.0203 0 51.547C0 57.7056 1.928 62.6016 5.77334 66.2336C9.61467 69.8696 14.8227 71.6816 21.3653 71.6816C29.8627 71.6816 37.6747 66.9376 43.076 60.547L41.7533 59.559C38.784 63.1456 30.2707 69.7803 24.1587 69.7803C20.06 69.7803 15.748 67.9896 15.9427 63.471C16.18 57.979 21.8 37.739 23.464 34.3283C26.1013 28.9843 30.0973 26.6643 35.3493 27.5416C41.0707 28.487 43.0973 32.8043 43.1987 38.9056H57.604L68.044 0.000314535C61.6253 2.78031 54.9453 3.75231 48.0707 3.80698Z" fill="#272F3F"/>
<path d="M86.3479 10.9304C89.8439 8.52237 93.6866 7.31837 97.8759 7.31837C102.889 7.31837 107.376 8.93571 111.335 12.1677C115.293 15.401 117.997 20.0517 119.449 26.121H121.379V2.86504H119.449C119.217 4.54771 118.715 5.77704 117.94 6.55171C117.164 7.32771 116.249 7.71437 115.195 7.71437C114.369 7.71437 112.439 7.12104 109.405 5.93304C104.16 3.88904 99.1786 2.86504 94.4626 2.86504C88.0626 2.86504 82.0186 4.44904 76.3279 7.61571C75.4306 8.11571 74.5679 8.65171 73.7319 9.2197L61.4346 54.7357C61.7052 55.2784 61.9759 55.8184 62.2759 56.3517C65.2946 61.7304 69.5826 65.8517 75.1412 68.7224C80.6986 71.5917 87.0559 73.0264 94.2146 73.0264C99.6572 73.0264 104.416 72.1437 108.489 70.3797C112.563 68.6157 116.481 65.7704 120.241 61.845V56.0557C116.348 60.5744 112.647 63.7584 109.133 65.605C105.62 67.453 101.752 68.3757 97.5306 68.3757C92.3839 68.3757 88.1946 67.1144 84.9626 64.5904C81.7292 62.0677 79.3546 58.341 77.8372 53.4077C76.3199 48.477 75.5612 43.0104 75.5612 37.0064C75.5612 30.9037 76.5999 25.3624 78.6786 20.381C80.2946 16.489 82.8506 13.3397 86.3479 10.9304Z" fill="#7BBBC7"/>
<path d="M147.85 36.9C151.383 36.9 154.467 37.6167 157.1 39.05C159.767 40.4833 161.833 42.55 163.3 45.25C164.767 47.9167 165.5 51.1667 165.5 55C165.5 58.7333 164.75 62 163.25 64.8C161.75 67.6 159.65 69.7833 156.95 71.35C154.283 72.9167 151.233 73.7 147.8 73.7C144.267 73.7 141.167 72.9833 138.5 71.55C135.867 70.1167 133.817 68.05 132.35 65.35C130.883 62.65 130.15 59.4 130.15 55.6C130.15 51.8667 130.9 48.6 132.4 45.8C133.933 43 136.017 40.8167 138.65 39.25C141.317 37.6833 144.383 36.9 147.85 36.9ZM147.65 37.8C145.783 37.8 144.15 38.55 142.75 40.05C141.383 41.55 140.317 43.6167 139.55 46.25C138.817 48.8833 138.45 51.9333 138.45 55.4C138.45 58.9333 138.867 62.0167 139.7 64.65C140.567 67.25 141.717 69.2667 143.15 70.7C144.617 72.1 146.233 72.8 148 72.8C149.867 72.8 151.483 72.05 152.85 70.55C154.25 69.05 155.317 66.9833 156.05 64.35C156.817 61.6833 157.2 58.6333 157.2 55.2C157.2 51.6333 156.767 48.55 155.9 45.95C155.067 43.35 153.917 41.35 152.45 39.95C151.017 38.5167 149.417 37.8 147.65 37.8ZM204.408 37.6V38.6C203.341 38.7333 202.541 39.0167 202.008 39.45C201.474 39.85 201.108 40.5 200.908 41.4C200.741 42.3 200.658 43.5667 200.658 45.2V73.1C200.258 73.0667 199.841 73.05 199.408 73.05C199.008 73.05 198.574 73.0667 198.108 73.1L176.408 45.6V64.8C176.408 66.6333 176.508 68.05 176.708 69.05C176.908 70.0167 177.341 70.7167 178.008 71.15C178.708 71.55 179.791 71.8333 181.258 72V73C180.624 72.9333 179.791 72.9 178.758 72.9C177.724 72.8667 176.758 72.85 175.858 72.85C175.091 72.85 174.308 72.8667 173.508 72.9C172.708 72.9 172.041 72.9333 171.508 73V72C172.574 71.8333 173.374 71.55 173.908 71.15C174.441 70.75 174.791 70.1 174.958 69.2C175.158 68.2667 175.258 67 175.258 65.4V42.9C175.258 41.6667 175.158 40.7667 174.958 40.2C174.791 39.6 174.424 39.2 173.858 39C173.324 38.7667 172.541 38.6333 171.508 38.6V37.6C172.041 37.6333 172.708 37.6667 173.508 37.7C174.308 37.7333 175.091 37.75 175.858 37.75C176.658 37.75 177.424 37.7333 178.158 37.7C178.891 37.6667 179.558 37.6333 180.158 37.6L199.508 61.45V45.8C199.508 43.9667 199.408 42.5667 199.208 41.6C199.008 40.6 198.558 39.8833 197.858 39.45C197.191 39.0167 196.124 38.7333 194.658 38.6V37.6C195.291 37.6333 196.124 37.6667 197.158 37.7C198.191 37.7333 199.158 37.75 200.058 37.75C200.858 37.75 201.641 37.7333 202.408 37.7C203.208 37.6667 203.874 37.6333 204.408 37.6ZM222.542 36.95C224.508 36.95 226.025 37.1667 227.092 37.6C228.158 38 229.075 38.4333 229.842 38.9C230.242 39.1333 230.558 39.3167 230.792 39.45C231.058 39.55 231.308 39.6 231.542 39.6C232.075 39.6 232.442 38.8667 232.642 37.4H233.792C233.758 38.0333 233.708 38.8 233.642 39.7C233.608 40.5667 233.575 41.7167 233.542 43.15C233.542 44.5833 233.542 46.4667 233.542 48.8H232.392C232.258 47.0667 231.858 45.3833 231.192 43.75C230.525 42.1167 229.575 40.7833 228.342 39.75C227.142 38.6833 225.658 38.15 223.892 38.15C222.292 38.15 220.975 38.6 219.942 39.5C218.908 40.4 218.392 41.65 218.392 43.25C218.392 44.5833 218.725 45.7333 219.392 46.7C220.058 47.6333 221.025 48.55 222.292 49.45C223.592 50.35 225.158 51.4333 226.992 52.7C228.592 53.7333 230.025 54.7667 231.292 55.8C232.558 56.8333 233.575 58 234.342 59.3C235.108 60.6 235.492 62.15 235.492 63.95C235.492 66.15 234.908 67.9667 233.742 69.4C232.608 70.8333 231.108 71.9167 229.242 72.65C227.375 73.35 225.325 73.7 223.092 73.7C221.025 73.7 219.375 73.5 218.142 73.1C216.908 72.7 215.875 72.2833 215.042 71.85C214.308 71.3833 213.742 71.15 213.342 71.15C212.808 71.15 212.442 71.8833 212.242 73.35H211.092C211.158 72.55 211.192 71.6167 211.192 70.55C211.225 69.4833 211.242 68.1 211.242 66.4C211.275 64.6667 211.292 62.4833 211.292 59.85H212.442C212.575 62.05 212.942 64.1167 213.542 66.05C214.175 67.95 215.125 69.4833 216.392 70.65C217.692 71.8167 219.408 72.4 221.542 72.4C223.275 72.4 224.742 71.9333 225.942 71C227.142 70.0667 227.742 68.6667 227.742 66.8C227.742 64.7333 227.042 63.0333 225.642 61.7C224.242 60.3333 222.442 58.9333 220.242 57.5C218.675 56.4667 217.208 55.4333 215.842 54.4C214.475 53.3667 213.375 52.1833 212.542 50.85C211.742 49.5167 211.342 47.9333 211.342 46.1C211.342 44 211.858 42.2833 212.892 40.95C213.958 39.5833 215.342 38.5833 217.042 37.95C218.775 37.2833 220.608 36.95 222.542 36.95ZM273.591 37.6V38.6C272.524 38.7333 271.708 39.0167 271.141 39.45C270.608 39.85 270.258 40.5 270.091 41.4C269.924 42.3 269.841 43.5667 269.841 45.2V58.45C269.841 60.6167 269.691 62.6 269.391 64.4C269.091 66.2 268.558 67.75 267.791 69.05C266.924 70.4833 265.658 71.6167 263.991 72.45C262.324 73.2833 260.208 73.7 257.641 73.7C256.108 73.7 254.541 73.5167 252.941 73.15C251.341 72.8167 249.908 72.1667 248.641 71.2C247.574 70.3 246.758 69.2833 246.191 68.15C245.624 67.0167 245.241 65.6833 245.041 64.15C244.841 62.5833 244.741 60.7333 244.741 58.6V42.9C244.741 41.6667 244.641 40.7667 244.441 40.2C244.274 39.6 243.924 39.2 243.391 39C242.858 38.7667 242.058 38.6333 240.991 38.6V37.6C241.824 37.6333 242.941 37.6667 244.341 37.7C245.774 37.7333 247.258 37.75 248.791 37.75C250.324 37.75 251.791 37.7333 253.191 37.7C254.624 37.6667 255.808 37.6333 256.741 37.6V38.6C255.608 38.6333 254.741 38.7667 254.141 39C253.574 39.2 253.191 39.6 252.991 40.2C252.791 40.7667 252.691 41.6667 252.691 42.9V61.75C252.691 63.9833 252.891 65.8667 253.291 67.4C253.691 68.9 254.391 70.0333 255.391 70.8C256.424 71.5667 257.824 71.95 259.591 71.95C261.924 71.95 263.741 71.4 265.041 70.3C266.374 69.2 267.308 67.6833 267.841 65.75C268.408 63.7833 268.691 61.5333 268.691 59V45.8C268.691 43.9667 268.574 42.5667 268.341 41.6C268.108 40.6 267.641 39.8833 266.941 39.45C266.274 39.0167 265.241 38.7333 263.841 38.6V37.6C264.474 37.6333 265.308 37.6667 266.341 37.7C267.374 37.7333 268.341 37.75 269.241 37.75C270.041 37.75 270.824 37.7333 271.591 37.7C272.391 37.6667 273.058 37.6333 273.591 37.6ZM294.464 37.6V38.6C293.33 38.6333 292.464 38.7667 291.864 39C291.297 39.2 290.914 39.6 290.714 40.2C290.514 40.7667 290.414 41.6667 290.414 42.9V68.3C290.414 69.3333 290.48 70.1 290.614 70.6C290.78 71.1 291.08 71.4333 291.514 71.6C291.98 71.7667 292.664 71.85 293.564 71.85H296.014C297.547 71.85 298.93 71.3833 300.164 70.45C301.43 69.5167 302.48 68.2167 303.314 66.55C304.18 64.85 304.78 62.9 305.114 60.7H306.264C306.164 61.8333 306.114 63.3 306.114 65.1C306.114 65.8667 306.13 66.9833 306.164 68.45C306.197 69.9167 306.297 71.4333 306.464 73C304.764 72.9333 302.847 72.9 300.714 72.9C298.58 72.8667 296.68 72.85 295.014 72.85C293.88 72.85 292.38 72.85 290.514 72.85C288.647 72.85 286.664 72.8667 284.564 72.9C282.464 72.9 280.514 72.9333 278.714 73V72C279.78 71.9333 280.58 71.8 281.114 71.6C281.647 71.4 281.997 71 282.164 70.4C282.364 69.8 282.464 68.9 282.464 67.7V42.9C282.464 41.6667 282.364 40.7667 282.164 40.2C281.997 39.6 281.63 39.2 281.064 39C280.53 38.7667 279.747 38.6333 278.714 38.6V37.6C279.547 37.6333 280.664 37.6667 282.064 37.7C283.497 37.7333 285.014 37.75 286.614 37.75C288.08 37.75 289.514 37.7333 290.914 37.7C292.347 37.6667 293.53 37.6333 294.464 37.6ZM338.811 37.6C338.678 39.3 338.578 40.9333 338.511 42.5C338.478 44.0667 338.461 45.2667 338.461 46.1C338.461 46.8333 338.478 47.5333 338.511 48.2C338.544 48.8667 338.578 49.4333 338.611 49.9H337.461C336.928 47.1 336.244 44.8833 335.411 43.25C334.611 41.6167 333.644 40.4667 332.511 39.8C331.378 39.1 330.044 38.75 328.511 38.75H327.361V67.3C327.361 68.6333 327.494 69.6333 327.761 70.3C328.061 70.9667 328.594 71.4167 329.361 71.65C330.128 71.85 331.244 71.9667 332.711 72V73C331.678 72.9667 330.294 72.9333 328.561 72.9C326.861 72.8667 325.078 72.85 323.211 72.85C321.378 72.85 319.644 72.8667 318.011 72.9C316.378 72.9333 315.061 72.9667 314.061 73V72C315.561 71.9667 316.694 71.85 317.461 71.65C318.228 71.4167 318.744 70.9667 319.011 70.3C319.278 69.6333 319.411 68.6333 319.411 67.3V38.75H318.311C316.778 38.75 315.444 39.1 314.311 39.8C313.178 40.4667 312.211 41.6167 311.411 43.25C310.611 44.85 309.911 47.0667 309.311 49.9H308.161C308.228 49.4333 308.261 48.8667 308.261 48.2C308.294 47.5333 308.311 46.8333 308.311 46.1C308.311 45.2667 308.278 44.0667 308.211 42.5C308.178 40.9333 308.094 39.3 307.961 37.6C309.494 37.6333 311.161 37.6667 312.961 37.7C314.794 37.7333 316.628 37.75 318.461 37.75C320.294 37.75 321.944 37.75 323.411 37.75C324.911 37.75 326.561 37.75 328.361 37.75C330.194 37.75 332.028 37.7333 333.861 37.7C335.694 37.6667 337.344 37.6333 338.811 37.6ZM359.759 37.6V38.6C358.693 38.6333 357.876 38.7667 357.309 39C356.776 39.2 356.426 39.6 356.259 40.2C356.093 40.7667 356.009 41.6667 356.009 42.9V67.7C356.009 68.9 356.093 69.8 356.259 70.4C356.459 71 356.826 71.4 357.359 71.6C357.893 71.8 358.693 71.9333 359.759 72V73C358.859 72.9333 357.726 72.9 356.359 72.9C354.993 72.8667 353.609 72.85 352.209 72.85C350.576 72.85 349.059 72.8667 347.659 72.9C346.293 72.9 345.176 72.9333 344.309 73V72C345.376 71.9333 346.176 71.8 346.709 71.6C347.243 71.4 347.593 71 347.759 70.4C347.959 69.8 348.059 68.9 348.059 67.7V42.9C348.059 41.6667 347.959 40.7667 347.759 40.2C347.593 39.6 347.226 39.2 346.659 39C346.126 38.7667 345.343 38.6333 344.309 38.6V37.6C345.176 37.6333 346.293 37.6667 347.659 37.7C349.059 37.7333 350.576 37.75 352.209 37.75C353.609 37.75 354.993 37.7333 356.359 37.7C357.726 37.6667 358.859 37.6333 359.759 37.6ZM398.558 37.6V38.6C397.492 38.7333 396.692 39.0167 396.158 39.45C395.625 39.85 395.258 40.5 395.058 41.4C394.892 42.3 394.808 43.5667 394.808 45.2V73.1C394.408 73.0667 393.992 73.05 393.558 73.05C393.158 73.05 392.725 73.0667 392.258 73.1L370.558 45.6V64.8C370.558 66.6333 370.658 68.05 370.858 69.05C371.058 70.0167 371.492 70.7167 372.158 71.15C372.858 71.55 373.942 71.8333 375.408 72V73C374.775 72.9333 373.942 72.9 372.908 72.9C371.875 72.8667 370.908 72.85 370.008 72.85C369.242 72.85 368.458 72.8667 367.658 72.9C366.858 72.9 366.192 72.9333 365.658 73V72C366.725 71.8333 367.525 71.55 368.058 71.15C368.592 70.75 368.942 70.1 369.108 69.2C369.308 68.2667 369.408 67 369.408 65.4V42.9C369.408 41.6667 369.308 40.7667 369.108 40.2C368.942 39.6 368.575 39.2 368.008 39C367.475 38.7667 366.692 38.6333 365.658 38.6V37.6C366.192 37.6333 366.858 37.6667 367.658 37.7C368.458 37.7333 369.242 37.75 370.008 37.75C370.808 37.75 371.575 37.7333 372.308 37.7C373.042 37.6667 373.708 37.6333 374.308 37.6L393.658 61.45V45.8C393.658 43.9667 393.558 42.5667 393.358 41.6C393.158 40.6 392.708 39.8833 392.008 39.45C391.342 39.0167 390.275 38.7333 388.808 38.6V37.6C389.442 37.6333 390.275 37.6667 391.308 37.7C392.342 37.7333 393.308 37.75 394.208 37.75C395.008 37.75 395.792 37.7333 396.558 37.7C397.358 37.6667 398.025 37.6333 398.558 37.6ZM422.4 36.9C424.667 36.9 426.517 37.2167 427.95 37.85C429.384 38.4833 430.667 39.25 431.8 40.15C432.2 40.45 432.534 40.6 432.8 40.6C433.434 40.6 433.85 39.6 434.05 37.6H435.2C435.134 38.9 435.084 40.4833 435.05 42.35C435.017 44.1833 435 46.6333 435 49.7H433.85C433.617 47.7 433.25 45.9667 432.75 44.5C432.284 43 431.4 41.7167 430.1 40.65C429.3 39.8833 428.3 39.2833 427.1 38.85C425.934 38.4167 424.75 38.2 423.55 38.2C421.717 38.2 420.15 38.6833 418.85 39.65C417.55 40.5833 416.484 41.8667 415.65 43.5C414.817 45.1333 414.2 46.9833 413.8 49.05C413.4 51.0833 413.2 53.2 413.2 55.4C413.2 61.4 414.017 65.7833 415.65 68.55C417.317 71.3167 419.7 72.7 422.8 72.7C423.6 72.7 424.3 72.6 424.9 72.4C425.5 72.2 425.984 71.9667 426.35 71.7C426.817 71.3667 427.134 71.0167 427.3 70.65C427.467 70.25 427.55 69.7333 427.55 69.1V64.2C427.55 62.6667 427.417 61.5333 427.15 60.8C426.917 60.0333 426.434 59.5167 425.7 59.25C424.967 58.9833 423.9 58.8333 422.5 58.8V57.8C423.2 57.8333 424.034 57.8667 425 57.9C426 57.9 427.034 57.9167 428.1 57.95C429.167 57.95 430.15 57.95 431.05 57.95C432.45 57.95 433.734 57.9333 434.9 57.9C436.067 57.8667 437.017 57.8333 437.75 57.8V58.8C436.817 58.8667 436.2 59.1333 435.9 59.6C435.634 60.0667 435.5 61.2333 435.5 63.1V73H434.5C434.467 72.4333 434.334 71.8167 434.1 71.15C433.9 70.4833 433.55 70.15 433.05 70.15C432.817 70.15 432.5 70.2167 432.1 70.35C431.734 70.45 431.15 70.7333 430.35 71.2C429.117 71.9 427.817 72.5 426.45 73C425.084 73.4667 423.65 73.7 422.15 73.7C416.317 73.7 411.884 72.1167 408.85 68.95C405.817 65.7833 404.3 61.3667 404.3 55.7C404.3 51.9 405.067 48.6 406.6 45.8C408.167 43 410.3 40.8167 413 39.25C415.734 37.6833 418.867 36.9 422.4 36.9Z" fill="#7BBBC7"/>
</svg>
