<svg viewBox="0 0 606 89" xmlns="http://www.w3.org/2000/svg">
<path d="M124.541 9.78298C125.035 8.69498 125.694 7.92031 126.519 7.45765C127.707 6.76431 129.291 6.41898 131.27 6.41898H133.447V4.58831H106.134L87.9261 48.8216L69.0741 4.58831H65.9408C63.7208 12.4603 63.5515 18.5723 60.9941 25.2696L80.9501 71.6816H82.1368L107.866 10.4763V60.2016C107.866 63.567 107.683 65.6443 107.322 66.4363C106.827 67.559 106.167 68.351 105.343 68.811C104.155 69.5043 102.571 69.851 100.593 69.851H98.4155V71.6816H133.447V69.851H131.27C129.39 69.851 127.889 69.5296 126.767 68.8856C125.645 68.243 124.902 67.4923 124.541 66.635C124.178 65.7776 123.997 63.6336 123.997 60.2016V15.9683C123.997 12.6376 124.178 10.575 124.541 9.78298Z" fill="#DD673F"/>
<path d="M48.0707 3.80649C46.988 8.54383 41.592 28.9865 41.592 28.9865C41.3187 28.7412 41.0573 28.4998 40.7533 28.2678C37.6933 25.9945 33.284 25.1918 27.9667 25.1918C23.988 25.1918 20.3707 25.8092 17.0947 27.0438C13.8133 28.2878 10.852 30.1425 8.216 32.6185C5.604 35.1665 3.58667 38.0692 2.15334 41.3478C0.713335 44.6238 0 48.0198 0 51.5465C0 57.7052 1.928 62.6012 5.77334 66.2332C9.61467 69.8692 14.8227 71.6812 21.3653 71.6812C29.8627 71.6812 37.6747 66.9372 43.076 60.5465L41.7533 59.5585C38.784 63.1452 30.2707 69.7798 24.1587 69.7798C20.06 69.7798 15.748 67.9892 15.9427 63.4705C16.18 57.9785 21.8 37.7385 23.464 34.3278C26.1013 28.9838 30.0973 26.6638 35.3493 27.5412C41.0707 28.4865 43.0973 32.8038 43.1987 38.9052H57.604L68.044 -0.000173747C61.6253 2.77982 54.9453 3.75182 48.0707 3.80649Z" fill="#272F3F"/>
<path d="M165.62 36.6C165.487 38.0667 165.387 39.4833 165.32 40.85C165.287 42.2167 165.27 43.2667 165.27 44C165.27 44.6667 165.287 45.3 165.32 45.9C165.353 46.5 165.387 47 165.42 47.4H164.27C163.937 44.9667 163.42 43.05 162.72 41.65C162.02 40.2167 161.103 39.2167 159.97 38.65C158.87 38.05 157.57 37.75 156.07 37.75H154.02C153.02 37.75 152.27 37.8333 151.77 38C151.303 38.1667 150.987 38.5 150.82 39C150.653 39.4667 150.57 40.2333 150.57 41.3V67.3C150.57 68.3333 150.653 69.1 150.82 69.6C150.987 70.1 151.303 70.4333 151.77 70.6C152.27 70.7667 153.02 70.85 154.02 70.85H156.47C157.97 70.85 159.287 70.5333 160.42 69.9C161.587 69.2333 162.57 68.1167 163.37 66.55C164.203 64.9833 164.837 62.8667 165.27 60.2H166.42C166.32 61.2667 166.27 62.6667 166.27 64.4C166.27 65.1667 166.287 66.25 166.32 67.65C166.353 69.05 166.453 70.5 166.62 72C164.92 71.9333 163.003 71.9 160.87 71.9C158.737 71.8667 156.837 71.85 155.17 71.85C154.037 71.85 152.537 71.85 150.67 71.85C148.803 71.85 146.82 71.8667 144.72 71.9C142.62 71.9 140.67 71.9333 138.87 72V71C139.937 70.9333 140.737 70.8 141.27 70.6C141.803 70.4 142.153 70 142.32 69.4C142.52 68.8 142.62 67.9 142.62 66.7V41.9C142.62 40.6667 142.52 39.7667 142.32 39.2C142.153 38.6 141.787 38.2 141.22 38C140.687 37.7667 139.903 37.6333 138.87 37.6V36.6C140.67 36.6333 142.62 36.6667 144.72 36.7C146.82 36.7333 148.803 36.75 150.67 36.75C152.537 36.75 154.037 36.75 155.17 36.75C156.703 36.75 158.437 36.75 160.37 36.75C162.337 36.7167 164.087 36.6667 165.62 36.6ZM157.82 53.7C157.82 53.7 157.82 53.8667 157.82 54.2C157.82 54.5333 157.82 54.7 157.82 54.7H149.07C149.07 54.7 149.07 54.5333 149.07 54.2C149.07 53.8667 149.07 53.7 149.07 53.7H157.82ZM159.27 47.1C159.137 49 159.07 50.45 159.07 51.45C159.103 52.45 159.12 53.3667 159.12 54.2C159.12 55.0333 159.137 55.95 159.17 56.95C159.203 57.95 159.287 59.4 159.42 61.3H158.27C158.103 60.1333 157.787 59.05 157.32 58.05C156.887 57.05 156.253 56.25 155.42 55.65C154.587 55.0167 153.503 54.7 152.17 54.7V53.7C153.503 53.7 154.57 53.3333 155.37 52.6C156.17 51.8667 156.787 51 157.22 50C157.653 48.9667 157.953 48 158.12 47.1H159.27ZM188.509 36.6C195.076 36.6 199.959 38.1 203.159 41.1C206.359 44.0667 207.959 48.3333 207.959 53.9C207.959 57.5333 207.176 60.7167 205.609 63.45C204.043 66.15 201.759 68.25 198.759 69.75C195.793 71.25 192.226 72 188.059 72C187.259 72 186.109 71.9833 184.609 71.95C183.143 71.8833 181.859 71.85 180.759 71.85C179.293 71.85 177.843 71.8667 176.409 71.9C175.009 71.9 173.893 71.9333 173.059 72V71C174.126 70.9333 174.926 70.8 175.459 70.6C175.993 70.4 176.343 70 176.509 69.4C176.709 68.8 176.809 67.9 176.809 66.7V41.9C176.809 40.6667 176.709 39.7667 176.509 39.2C176.343 38.6 175.976 38.2 175.409 38C174.876 37.7667 174.093 37.6333 173.059 37.6V36.6C173.893 36.6333 175.009 36.6833 176.409 36.75C177.843 36.7833 179.259 36.7833 180.659 36.75C181.859 36.7167 183.209 36.6833 184.709 36.65C186.243 36.6167 187.509 36.6 188.509 36.6ZM188.459 37.5C186.926 37.5 185.926 37.7833 185.459 38.35C184.993 38.9167 184.759 40.0667 184.759 41.8V66.8C184.759 68.5333 184.993 69.6833 185.459 70.25C185.959 70.8167 186.976 71.1 188.509 71.1C191.309 71.1 193.509 70.45 195.109 69.15C196.743 67.8167 197.909 65.8833 198.609 63.35C199.309 60.8167 199.659 57.7333 199.659 54.1C199.659 48.5 198.793 44.3333 197.059 41.6C195.326 38.8667 192.459 37.5 188.459 37.5ZM229.388 36.6V37.6C228.322 37.6333 227.505 37.7667 226.938 38C226.405 38.2 226.055 38.6 225.888 39.2C225.722 39.7667 225.638 40.6667 225.638 41.9V66.7C225.638 67.9 225.722 68.8 225.888 69.4C226.088 70 226.455 70.4 226.988 70.6C227.522 70.8 228.322 70.9333 229.388 71V72C228.488 71.9333 227.355 71.9 225.988 71.9C224.622 71.8667 223.238 71.85 221.838 71.85C220.205 71.85 218.688 71.8667 217.288 71.9C215.922 71.9 214.805 71.9333 213.938 72V71C215.005 70.9333 215.805 70.8 216.338 70.6C216.872 70.4 217.222 70 217.388 69.4C217.588 68.8 217.688 67.9 217.688 66.7V41.9C217.688 40.6667 217.588 39.7667 217.388 39.2C217.222 38.6 216.855 38.2 216.288 38C215.755 37.7667 214.972 37.6333 213.938 37.6V36.6C214.805 36.6333 215.922 36.6667 217.288 36.7C218.688 36.7333 220.205 36.75 221.838 36.75C223.238 36.75 224.622 36.7333 225.988 36.7C227.355 36.6667 228.488 36.6333 229.388 36.6ZM251.937 36.5L264.087 67.8C264.554 69 265.07 69.8333 265.637 70.3C266.237 70.7333 266.77 70.9667 267.237 71V72C266.237 71.9333 265.054 71.9 263.687 71.9C262.354 71.8667 261.004 71.85 259.637 71.85C258.104 71.85 256.654 71.8667 255.287 71.9C253.92 71.9 252.837 71.9333 252.037 72V71C253.737 70.9333 254.804 70.65 255.237 70.15C255.704 69.6167 255.604 68.5 254.937 66.8L246.437 43.55L247.337 42.25L239.737 62.05C238.804 64.5167 238.337 66.3833 238.337 67.65C238.37 68.9167 238.787 69.7833 239.587 70.25C240.387 70.6833 241.454 70.9333 242.787 71V72C241.687 71.9333 240.637 71.9 239.637 71.9C238.637 71.8667 237.62 71.85 236.587 71.85C235.854 71.85 235.154 71.8667 234.487 71.9C233.854 71.9 233.287 71.9333 232.787 72V71C233.487 70.8667 234.204 70.4167 234.937 69.65C235.67 68.8833 236.387 67.5833 237.087 65.75L248.487 36.5C249.02 36.5333 249.587 36.55 250.187 36.55C250.82 36.55 251.404 36.5333 251.937 36.5ZM255.437 57.6V58.6H240.537L241.037 57.6H255.437Z" fill="#DD673F"/>
</svg>
