<svg viewBox="0 0 581 89" fill="none" xmlns="http://www.w3.org/2000/svg">
<path d="M48.2842 3.8234C47.1967 8.58178 41.7767 29.1152 41.7767 29.1152C41.5022 28.8688 41.2397 28.6264 40.9343 28.3934C37.8607 26.1099 33.4318 25.3037 28.0909 25.3037C24.0945 25.3037 20.4611 25.9238 17.1706 27.1639C13.8747 28.4135 10.9002 30.2764 8.25249 32.7634C5.62889 35.3227 3.6026 38.2382 2.16424 41.5315C0.716503 44.822 0 48.2331 0 51.7754C0 57.9614 1.93657 62.8792 5.79898 66.5273C9.65737 70.1795 14.8885 71.9995 21.4602 71.9995C29.9953 71.9995 37.842 67.2344 43.2673 60.8154L41.9388 59.823C38.9563 63.4256 30.4051 70.0897 24.266 70.0897C20.1491 70.0897 15.8179 68.2911 16.0135 63.7524C16.2519 58.236 21.8968 37.9061 23.5682 34.4803C26.2173 29.1126 30.231 26.7823 35.5063 27.6635C41.2531 28.613 43.2887 32.9495 43.3905 39.0779H57.8598L68.3462 -0.000168641C61.899 2.79217 55.1894 3.76849 48.2842 3.8234Z" fill="#272F3F"/>
<path d="M87.5203 9.16751C88.0145 8.02915 88.6894 7.22426 89.5479 6.75552C90.7345 6.05241 92.2987 5.69885 94.2447 5.69885H96.4719V3.83862H75.2179L70.8559 20.1896V60.3391C70.8559 63.7582 70.6751 65.8689 70.3109 66.6724C69.8515 67.8121 69.1912 68.6157 68.3341 69.0858C67.1489 69.7902 65.5819 70.1398 63.636 70.1398H61.4128V72H96.4719V70.1398H94.2447C92.367 70.1398 90.8738 69.813 89.7702 69.1594C88.6653 68.5059 87.9261 67.7438 87.5471 66.8733C87.1667 66.0028 86.9765 63.8238 86.9765 60.3391V15.5022C86.9765 12.0844 87.1573 9.97375 87.5203 9.16751Z" fill="#406196"/>
<path d="M132.65 36.6V37.6C131.583 37.7333 130.783 38.0167 130.25 38.45C129.717 38.85 129.35 39.5 129.15 40.4C128.983 41.3 128.9 42.5667 128.9 44.2V72.1C128.5 72.0667 128.083 72.05 127.65 72.05C127.25 72.05 126.817 72.0667 126.35 72.1L104.65 44.6V63.8C104.65 65.6333 104.75 67.05 104.95 68.05C105.15 69.0167 105.583 69.7167 106.25 70.15C106.95 70.55 108.033 70.8333 109.5 71V72C108.867 71.9333 108.033 71.9 107 71.9C105.967 71.8667 105 71.85 104.1 71.85C103.333 71.85 102.55 71.8667 101.75 71.9C100.95 71.9 100.283 71.9333 99.75 72V71C100.817 70.8333 101.617 70.55 102.15 70.15C102.683 69.75 103.033 69.1 103.2 68.2C103.4 67.2667 103.5 66 103.5 64.4V41.9C103.5 40.6667 103.4 39.7667 103.2 39.2C103.033 38.6 102.667 38.2 102.1 38C101.567 37.7667 100.783 37.6333 99.75 37.6V36.6C100.283 36.6333 100.95 36.6667 101.75 36.7C102.55 36.7333 103.333 36.75 104.1 36.75C104.9 36.75 105.667 36.7333 106.4 36.7C107.133 36.6667 107.8 36.6333 108.4 36.6L127.75 60.45V44.8C127.75 42.9667 127.65 41.5667 127.45 40.6C127.25 39.6 126.8 38.8833 126.1 38.45C125.433 38.0167 124.367 37.7333 122.9 37.6V36.6C123.533 36.6333 124.367 36.6667 125.4 36.7C126.433 36.7333 127.4 36.75 128.3 36.75C129.1 36.75 129.883 36.7333 130.65 36.7C131.45 36.6667 132.117 36.6333 132.65 36.6ZM170.484 36.6V37.6C169.751 37.8667 168.967 38.45 168.134 39.35C167.334 40.25 166.584 41.65 165.884 43.55L155.334 72.1C155.067 72.0667 154.784 72.05 154.484 72.05C154.184 72.05 153.884 72.05 153.584 72.05C153.317 72.05 153.034 72.05 152.734 72.05C152.434 72.05 152.151 72.0667 151.884 72.1L139.134 40.8C138.667 39.6 138.151 38.7833 137.584 38.35C137.017 37.8833 136.484 37.6333 135.984 37.6V36.6C136.984 36.6333 138.151 36.6667 139.484 36.7C140.851 36.7333 142.217 36.75 143.584 36.75C145.117 36.75 146.551 36.7333 147.884 36.7C149.251 36.6667 150.351 36.6333 151.184 36.6V37.6C149.551 37.6667 148.484 37.95 147.984 38.45C147.484 38.9167 147.584 40.0333 148.284 41.8L157.384 64.95L156.334 66.2L163.234 47.6C164.134 45.1 164.601 43.1333 164.634 41.7C164.667 40.2667 164.317 39.2333 163.584 38.6C162.851 37.9667 161.801 37.6333 160.434 37.6V36.6C161.567 36.6333 162.634 36.6667 163.634 36.7C164.634 36.7333 165.651 36.75 166.684 36.75C167.417 36.75 168.101 36.7333 168.734 36.7C169.401 36.6667 169.984 36.6333 170.484 36.6ZM200.932 36.6C200.799 38.0667 200.699 39.4833 200.632 40.85C200.599 42.2167 200.582 43.2667 200.582 44C200.582 44.6667 200.599 45.3 200.632 45.9C200.666 46.5 200.699 47 200.732 47.4H199.582C199.249 44.9667 198.732 43.05 198.032 41.65C197.332 40.2167 196.416 39.2167 195.282 38.65C194.182 38.05 192.882 37.75 191.382 37.75H189.332C188.332 37.75 187.582 37.8333 187.082 38C186.616 38.1667 186.299 38.5 186.132 39C185.966 39.4667 185.882 40.2333 185.882 41.3V67.3C185.882 68.3333 185.966 69.1 186.132 69.6C186.299 70.1 186.616 70.4333 187.082 70.6C187.582 70.7667 188.332 70.85 189.332 70.85H191.782C193.282 70.85 194.599 70.5333 195.732 69.9C196.899 69.2333 197.882 68.1167 198.682 66.55C199.516 64.9833 200.149 62.8667 200.582 60.2H201.732C201.632 61.2667 201.582 62.6667 201.582 64.4C201.582 65.1667 201.599 66.25 201.632 67.65C201.666 69.05 201.766 70.5 201.932 72C200.232 71.9333 198.316 71.9 196.182 71.9C194.049 71.8667 192.149 71.85 190.482 71.85C189.349 71.85 187.849 71.85 185.982 71.85C184.116 71.85 182.132 71.8667 180.032 71.9C177.932 71.9 175.982 71.9333 174.182 72V71C175.249 70.9333 176.049 70.8 176.582 70.6C177.116 70.4 177.466 70 177.632 69.4C177.832 68.8 177.932 67.9 177.932 66.7V41.9C177.932 40.6667 177.832 39.7667 177.632 39.2C177.466 38.6 177.099 38.2 176.532 38C175.999 37.7667 175.216 37.6333 174.182 37.6V36.6C175.982 36.6333 177.932 36.6667 180.032 36.7C182.132 36.7333 184.116 36.75 185.982 36.75C187.849 36.75 189.349 36.75 190.482 36.75C192.016 36.75 193.749 36.75 195.682 36.75C197.649 36.7167 199.399 36.6667 200.932 36.6ZM193.132 53.7C193.132 53.7 193.132 53.8667 193.132 54.2C193.132 54.5333 193.132 54.7 193.132 54.7H184.382C184.382 54.7 184.382 54.5333 184.382 54.2C184.382 53.8667 184.382 53.7 184.382 53.7H193.132ZM194.582 47.1C194.449 49 194.382 50.45 194.382 51.45C194.416 52.45 194.432 53.3667 194.432 54.2C194.432 55.0333 194.449 55.95 194.482 56.95C194.516 57.95 194.599 59.4 194.732 61.3H193.582C193.416 60.1333 193.099 59.05 192.632 58.05C192.199 57.05 191.566 56.25 190.732 55.65C189.899 55.0167 188.816 54.7 187.482 54.7V53.7C188.816 53.7 189.882 53.3333 190.682 52.6C191.482 51.8667 192.099 51 192.532 50C192.966 48.9667 193.266 48 193.432 47.1H194.582ZM220.872 35.95C222.839 35.95 224.355 36.1667 225.422 36.6C226.489 37 227.405 37.4333 228.172 37.9C228.572 38.1333 228.889 38.3167 229.122 38.45C229.389 38.55 229.639 38.6 229.872 38.6C230.405 38.6 230.772 37.8667 230.972 36.4H232.122C232.089 37.0333 232.039 37.8 231.972 38.7C231.939 39.5667 231.905 40.7167 231.872 42.15C231.872 43.5833 231.872 45.4667 231.872 47.8H230.722C230.589 46.0667 230.189 44.3833 229.522 42.75C228.855 41.1167 227.905 39.7833 226.672 38.75C225.472 37.6833 223.989 37.15 222.222 37.15C220.622 37.15 219.305 37.6 218.272 38.5C217.239 39.4 216.722 40.65 216.722 42.25C216.722 43.5833 217.055 44.7333 217.722 45.7C218.389 46.6333 219.355 47.55 220.622 48.45C221.922 49.35 223.489 50.4333 225.322 51.7C226.922 52.7333 228.355 53.7667 229.622 54.8C230.889 55.8333 231.905 57 232.672 58.3C233.439 59.6 233.822 61.15 233.822 62.95C233.822 65.15 233.239 66.9667 232.072 68.4C230.939 69.8333 229.439 70.9167 227.572 71.65C225.705 72.35 223.655 72.7 221.422 72.7C219.355 72.7 217.705 72.5 216.472 72.1C215.239 71.7 214.205 71.2833 213.372 70.85C212.639 70.3833 212.072 70.15 211.672 70.15C211.139 70.15 210.772 70.8833 210.572 72.35H209.422C209.489 71.55 209.522 70.6167 209.522 69.55C209.555 68.4833 209.572 67.1 209.572 65.4C209.605 63.6667 209.622 61.4833 209.622 58.85H210.772C210.905 61.05 211.272 63.1167 211.872 65.05C212.505 66.95 213.455 68.4833 214.722 69.65C216.022 70.8167 217.739 71.4 219.872 71.4C221.605 71.4 223.072 70.9333 224.272 70C225.472 69.0667 226.072 67.6667 226.072 65.8C226.072 63.7333 225.372 62.0333 223.972 60.7C222.572 59.3333 220.772 57.9333 218.572 56.5C217.005 55.4667 215.539 54.4333 214.172 53.4C212.805 52.3667 211.705 51.1833 210.872 49.85C210.072 48.5167 209.672 46.9333 209.672 45.1C209.672 43 210.189 41.2833 211.222 39.95C212.289 38.5833 213.672 37.5833 215.372 36.95C217.105 36.2833 218.939 35.95 220.872 35.95ZM270.471 36.6C270.338 38.3 270.238 39.9333 270.171 41.5C270.138 43.0667 270.121 44.2667 270.121 45.1C270.121 45.8333 270.138 46.5333 270.171 47.2C270.204 47.8667 270.238 48.4333 270.271 48.9H269.121C268.588 46.1 267.904 43.8833 267.071 42.25C266.271 40.6167 265.304 39.4667 264.171 38.8C263.038 38.1 261.704 37.75 260.171 37.75H259.021V66.3C259.021 67.6333 259.154 68.6333 259.421 69.3C259.721 69.9667 260.254 70.4167 261.021 70.65C261.788 70.85 262.904 70.9667 264.371 71V72C263.338 71.9667 261.954 71.9333 260.221 71.9C258.521 71.8667 256.738 71.85 254.871 71.85C253.038 71.85 251.304 71.8667 249.671 71.9C248.038 71.9333 246.721 71.9667 245.721 72V71C247.221 70.9667 248.354 70.85 249.121 70.65C249.888 70.4167 250.404 69.9667 250.671 69.3C250.938 68.6333 251.071 67.6333 251.071 66.3V37.75H249.971C248.438 37.75 247.104 38.1 245.971 38.8C244.838 39.4667 243.871 40.6167 243.071 42.25C242.271 43.85 241.571 46.0667 240.971 48.9H239.821C239.888 48.4333 239.921 47.8667 239.921 47.2C239.954 46.5333 239.971 45.8333 239.971 45.1C239.971 44.2667 239.938 43.0667 239.871 41.5C239.838 39.9333 239.754 38.3 239.621 36.6C241.154 36.6333 242.821 36.6667 244.621 36.7C246.454 36.7333 248.288 36.75 250.121 36.75C251.954 36.75 253.604 36.75 255.071 36.75C256.571 36.75 258.221 36.75 260.021 36.75C261.854 36.75 263.688 36.7333 265.521 36.7C267.354 36.6667 269.004 36.6333 270.471 36.6ZM318.97 36.6V37.6C317.903 37.6333 317.103 37.7667 316.57 38C316.036 38.2 315.67 38.6 315.47 39.2C315.303 39.7667 315.22 40.6667 315.22 41.9V66.7C315.22 67.9 315.303 68.8 315.47 69.4C315.67 70 316.036 70.4 316.57 70.6C317.103 70.8 317.903 70.9333 318.97 71V72C318.036 71.9333 316.853 71.9 315.42 71.9C314.02 71.8667 312.586 71.85 311.12 71.85C309.52 71.85 308.02 71.8667 306.62 71.9C305.22 71.9 304.086 71.9333 303.22 72V71C304.353 70.9333 305.203 70.8 305.77 70.6C306.37 70.4 306.77 70 306.97 69.4C307.17 68.8 307.27 67.9 307.27 66.7V39.65H307.62L295.22 72.05H294.42L280.92 39.85V63.8C280.92 65.6333 281.02 67.05 281.22 68.05C281.42 69.0167 281.853 69.7167 282.52 70.15C283.22 70.55 284.303 70.8333 285.77 71V72C285.136 71.9333 284.303 71.9 283.27 71.9C282.236 71.8667 281.27 71.85 280.37 71.85C279.603 71.85 278.82 71.8667 278.02 71.9C277.22 71.9 276.553 71.9333 276.02 72V71C277.086 70.8333 277.886 70.55 278.42 70.15C278.953 69.75 279.303 69.1 279.47 68.2C279.67 67.2667 279.77 66 279.77 64.4V41.9C279.77 40.6667 279.67 39.7667 279.47 39.2C279.303 38.6 278.936 38.2 278.37 38C277.836 37.7667 277.053 37.6333 276.02 37.6V36.6C276.553 36.6333 277.22 36.6667 278.02 36.7C278.82 36.7333 279.603 36.75 280.37 36.75C281.803 36.75 283.203 36.7333 284.57 36.7C285.97 36.6667 287.203 36.6333 288.27 36.6L298.77 61.95L297.52 63.1L307.57 36.75C308.136 36.75 308.72 36.75 309.32 36.75C309.92 36.75 310.52 36.75 311.12 36.75C312.586 36.75 314.02 36.7333 315.42 36.7C316.853 36.6667 318.036 36.6333 318.97 36.6ZM351.557 36.6C351.424 38.0667 351.324 39.4833 351.257 40.85C351.224 42.2167 351.207 43.2667 351.207 44C351.207 44.6667 351.224 45.3 351.257 45.9C351.291 46.5 351.324 47 351.357 47.4H350.207C349.874 44.9667 349.357 43.05 348.657 41.65C347.957 40.2167 347.041 39.2167 345.907 38.65C344.807 38.05 343.507 37.75 342.007 37.75H339.957C338.957 37.75 338.207 37.8333 337.707 38C337.241 38.1667 336.924 38.5 336.757 39C336.591 39.4667 336.507 40.2333 336.507 41.3V67.3C336.507 68.3333 336.591 69.1 336.757 69.6C336.924 70.1 337.241 70.4333 337.707 70.6C338.207 70.7667 338.957 70.85 339.957 70.85H342.407C343.907 70.85 345.224 70.5333 346.357 69.9C347.524 69.2333 348.507 68.1167 349.307 66.55C350.141 64.9833 350.774 62.8667 351.207 60.2H352.357C352.257 61.2667 352.207 62.6667 352.207 64.4C352.207 65.1667 352.224 66.25 352.257 67.65C352.291 69.05 352.391 70.5 352.557 72C350.857 71.9333 348.941 71.9 346.807 71.9C344.674 71.8667 342.774 71.85 341.107 71.85C339.974 71.85 338.474 71.85 336.607 71.85C334.741 71.85 332.757 71.8667 330.657 71.9C328.557 71.9 326.607 71.9333 324.807 72V71C325.874 70.9333 326.674 70.8 327.207 70.6C327.741 70.4 328.091 70 328.257 69.4C328.457 68.8 328.557 67.9 328.557 66.7V41.9C328.557 40.6667 328.457 39.7667 328.257 39.2C328.091 38.6 327.724 38.2 327.157 38C326.624 37.7667 325.841 37.6333 324.807 37.6V36.6C326.607 36.6333 328.557 36.6667 330.657 36.7C332.757 36.7333 334.741 36.75 336.607 36.75C338.474 36.75 339.974 36.75 341.107 36.75C342.641 36.75 344.374 36.75 346.307 36.75C348.274 36.7167 350.024 36.6667 351.557 36.6ZM343.757 53.7C343.757 53.7 343.757 53.8667 343.757 54.2C343.757 54.5333 343.757 54.7 343.757 54.7H335.007C335.007 54.7 335.007 54.5333 335.007 54.2C335.007 53.8667 335.007 53.7 335.007 53.7H343.757ZM345.207 47.1C345.074 49 345.007 50.45 345.007 51.45C345.041 52.45 345.057 53.3667 345.057 54.2C345.057 55.0333 345.074 55.95 345.107 56.95C345.141 57.95 345.224 59.4 345.357 61.3H344.207C344.041 60.1333 343.724 59.05 343.257 58.05C342.824 57.05 342.191 56.25 341.357 55.65C340.524 55.0167 339.441 54.7 338.107 54.7V53.7C339.441 53.7 340.507 53.3333 341.307 52.6C342.107 51.8667 342.724 51 343.157 50C343.591 48.9667 343.891 48 344.057 47.1H345.207ZM391.947 36.6V37.6C390.88 37.7333 390.08 38.0167 389.547 38.45C389.014 38.85 388.647 39.5 388.447 40.4C388.28 41.3 388.197 42.5667 388.197 44.2V72.1C387.797 72.0667 387.38 72.05 386.947 72.05C386.547 72.05 386.114 72.0667 385.647 72.1L363.947 44.6V63.8C363.947 65.6333 364.047 67.05 364.247 68.05C364.447 69.0167 364.88 69.7167 365.547 70.15C366.247 70.55 367.33 70.8333 368.797 71V72C368.164 71.9333 367.33 71.9 366.297 71.9C365.264 71.8667 364.297 71.85 363.397 71.85C362.63 71.85 361.847 71.8667 361.047 71.9C360.247 71.9 359.58 71.9333 359.047 72V71C360.114 70.8333 360.914 70.55 361.447 70.15C361.98 69.75 362.33 69.1 362.497 68.2C362.697 67.2667 362.797 66 362.797 64.4V41.9C362.797 40.6667 362.697 39.7667 362.497 39.2C362.33 38.6 361.964 38.2 361.397 38C360.864 37.7667 360.08 37.6333 359.047 37.6V36.6C359.58 36.6333 360.247 36.6667 361.047 36.7C361.847 36.7333 362.63 36.75 363.397 36.75C364.197 36.75 364.964 36.7333 365.697 36.7C366.43 36.6667 367.097 36.6333 367.697 36.6L387.047 60.45V44.8C387.047 42.9667 386.947 41.5667 386.747 40.6C386.547 39.6 386.097 38.8833 385.397 38.45C384.73 38.0167 383.664 37.7333 382.197 37.6V36.6C382.83 36.6333 383.664 36.6667 384.697 36.7C385.73 36.7333 386.697 36.75 387.597 36.75C388.397 36.75 389.18 36.7333 389.947 36.7C390.747 36.6667 391.414 36.6333 391.947 36.6ZM427.981 36.6C427.848 38.3 427.748 39.9333 427.681 41.5C427.648 43.0667 427.631 44.2667 427.631 45.1C427.631 45.8333 427.648 46.5333 427.681 47.2C427.714 47.8667 427.748 48.4333 427.781 48.9H426.631C426.098 46.1 425.414 43.8833 424.581 42.25C423.781 40.6167 422.814 39.4667 421.681 38.8C420.548 38.1 419.214 37.75 417.681 37.75H416.531V66.3C416.531 67.6333 416.664 68.6333 416.931 69.3C417.231 69.9667 417.764 70.4167 418.531 70.65C419.298 70.85 420.414 70.9667 421.881 71V72C420.848 71.9667 419.464 71.9333 417.731 71.9C416.031 71.8667 414.248 71.85 412.381 71.85C410.548 71.85 408.814 71.8667 407.181 71.9C405.548 71.9333 404.231 71.9667 403.231 72V71C404.731 70.9667 405.864 70.85 406.631 70.65C407.398 70.4167 407.914 69.9667 408.181 69.3C408.448 68.6333 408.581 67.6333 408.581 66.3V37.75H407.481C405.948 37.75 404.614 38.1 403.481 38.8C402.348 39.4667 401.381 40.6167 400.581 42.25C399.781 43.85 399.081 46.0667 398.481 48.9H397.331C397.398 48.4333 397.431 47.8667 397.431 47.2C397.464 46.5333 397.481 45.8333 397.481 45.1C397.481 44.2667 397.448 43.0667 397.381 41.5C397.348 39.9333 397.264 38.3 397.131 36.6C398.664 36.6333 400.331 36.6667 402.131 36.7C403.964 36.7333 405.798 36.75 407.631 36.75C409.464 36.75 411.114 36.75 412.581 36.75C414.081 36.75 415.731 36.75 417.531 36.75C419.364 36.75 421.198 36.7333 423.031 36.7C424.864 36.6667 426.514 36.6333 427.981 36.6Z" fill="#406196"/>
</svg>
